<svg width="18" height="18" viewBox="0 0 18 18" fill="none" xmlns="http://www.w3.org/2000/svg">
    <path d="M3.19421 12.4452C2.35557 11.0314 2.06187 9.36015 2.36826 7.74518C2.67466 6.13021 3.56006 4.68264 4.85823 3.67428C6.15639 2.66593 7.77801 2.16616 9.41858 2.26883C11.0592 2.37149 12.6058 3.06952 13.7681 4.23184C14.9305 5.39417 15.6285 6.94083 15.7312 8.5814C15.8339 10.222 15.3341 11.8436 14.3257 13.1418C13.3174 14.4399 11.8698 15.3253 10.2549 15.6317C8.63989 15.9381 6.96862 15.6445 5.55486 14.8058L5.55488 14.8057L3.22356 15.4718C3.12711 15.4994 3.02504 15.5007 2.92793 15.4755C2.83082 15.4503 2.74221 15.3997 2.67128 15.3287C2.60034 15.2578 2.54967 15.1692 2.52451 15.0721C2.49935 14.975 2.50061 14.8729 2.52817 14.7764L3.19426 12.4451L3.19421 12.4452Z" stroke="#464D61" stroke-linecap="round" stroke-linejoin="round"/>
    <path d="M9 9.84375C9.46599 9.84375 9.84375 9.46599 9.84375 9C9.84375 8.53401 9.46599 8.15625 9 8.15625C8.53401 8.15625 8.15625 8.53401 8.15625 9C8.15625 9.46599 8.53401 9.84375 9 9.84375Z" fill="#464D61"/>
    <path d="M5.625 9.84375C6.09099 9.84375 6.46875 9.46599 6.46875 9C6.46875 8.53401 6.09099 8.15625 5.625 8.15625C5.15901 8.15625 4.78125 8.53401 4.78125 9C4.78125 9.46599 5.15901 9.84375 5.625 9.84375Z" fill="#464D61"/>
    <path d="M12.375 9.84375C12.841 9.84375 13.2188 9.46599 13.2188 9C13.2188 8.53401 12.841 8.15625 12.375 8.15625C11.909 8.15625 11.5312 8.53401 11.5312 9C11.5312 9.46599 11.909 9.84375 12.375 9.84375Z" fill="#464D61"/>
</svg>
