<svg width="16" height="16" viewBox="0 0 16 16" fill="none" xmlns="http://www.w3.org/2000/svg">
    <path d="M1.99963 9.5H4.99963V3H1.99963C1.86703 3 1.73985 3.05268 1.64608 3.14645C1.55231 3.24021 1.49963 3.36739 1.49963 3.5V9C1.49963 9.13261 1.55231 9.25979 1.64608 9.35355C1.73985 9.44732 1.86703 9.5 1.99963 9.5V9.5Z" stroke="#636A80" stroke-linecap="round" stroke-linejoin="round"/>
    <path d="M4.99963 9.5L7.49963 14.5C7.76228 14.5 8.02235 14.4483 8.265 14.3478C8.50765 14.2472 8.72813 14.0999 8.91385 13.9142C9.09956 13.7285 9.24688 13.508 9.34739 13.2654C9.4479 13.0227 9.49963 12.7626 9.49963 12.5V11H13.3669C13.5086 11 13.6488 10.9698 13.7781 10.9115C13.9073 10.8532 14.0227 10.7681 14.1165 10.6618C14.2104 10.5555 14.2805 10.4305 14.3224 10.295C14.3642 10.1595 14.3767 10.0167 14.3591 9.87597L13.6091 3.87597C13.5789 3.63411 13.4614 3.41163 13.2787 3.25032C13.0959 3.08902 12.8606 3 12.6169 3H4.99963" stroke="#636A80" stroke-linecap="round" stroke-linejoin="round"/>
</svg>
