<svg width="414" height="310" viewBox="0 0 414 310" fill="none" xmlns="http://www.w3.org/2000/svg">
    <path d="M254.817 49.3415C256.706 45.9574 261.208 48.1015 263.433 49.8324C265.71 51.589 267.858 53.449 270.859 53.6557C276.112 54.0432 280.77 50.1682 285.272 48.1015C288.066 46.8099 291.042 46.009 294.095 46.7582C297.2 47.5074 299.891 49.264 302.893 50.2974C305.48 51.1757 308.119 51.2274 310.552 49.884C313.838 48.0757 316.192 45.1565 320.332 45.8024C324.291 46.4224 327.5 49.1349 331.381 50.0132C334.176 50.6332 337.306 50.4524 339.273 48.1532C339.583 47.7657 339.04 47.2232 338.73 47.6107C336.504 50.2199 332.778 49.8065 329.854 48.7732C326.517 47.6107 323.593 45.389 319.996 44.9757C316.503 44.5882 314.148 46.5257 311.457 48.3857C310.06 49.3415 308.559 50.1165 306.826 50.194C305.17 50.2715 303.565 49.7807 302.039 49.1607C299.115 47.9982 296.346 46.2674 293.19 45.8024C290.628 45.4149 288.144 46.0349 285.789 47.0424C280.925 49.109 275.672 53.8365 270.031 52.8032C266.357 52.1315 264.261 48.7215 260.923 47.3782C258.595 46.4482 255.49 46.5515 254.144 48.954C253.911 49.3674 254.584 49.7807 254.817 49.3415Z" fill="#AEB3C2"/>
    <path d="M293.138 40.6099C295.544 35.5724 302.246 37.8716 306.05 39.4474C308.352 40.4033 310.759 41.3333 313.295 41.23C315.39 41.1525 317.383 40.4808 319.272 39.6799C323.645 37.7941 328.121 34.7199 333.115 36.0633C337.514 37.2774 341.343 40.9199 346.182 39.8866C348.976 39.2924 351.305 37.4583 354.022 36.6833C357.618 35.6758 361.086 37.2774 364.268 38.8274C364.708 39.0341 365.122 38.3883 364.656 38.1558C362.095 36.9158 359.404 35.6241 356.48 35.5724C353.841 35.5466 351.564 36.8124 349.261 37.8974C346.518 39.2149 343.982 39.7058 341.058 38.6466C338.652 37.7941 336.479 36.3474 334.046 35.5208C329.285 33.9191 324.99 36.0891 320.747 38.1299C318.444 39.215 316.037 40.2999 313.45 40.4291C310.526 40.5841 307.861 39.3441 305.222 38.2591C301.237 36.6316 294.794 35.2883 292.439 40.1966C292.258 40.6616 292.931 41.0749 293.138 40.6099Z" fill="#AEB3C2"/>
    <path d="M65.5155 222.477C65.8001 221.03 67.1974 220.307 68.5946 220.281C70.1989 220.255 71.5961 221.288 72.7605 222.27C74.6235 223.872 76.5383 225.99 79.2034 226.068C81.4028 226.145 82.9553 224.595 84.4043 223.174C86.1638 221.418 88.0009 220.229 90.5625 220.643C94.7284 221.288 98.0921 224.388 102.258 224.983C104.328 225.267 106.113 224.698 107.769 223.458C108.83 222.658 109.762 221.702 110.978 221.159C112.556 220.436 114.342 220.436 116.024 220.72C121.354 221.624 127.745 226.145 132.868 222.244C133.256 221.934 132.868 221.263 132.48 221.573C127.434 225.396 120.966 220.617 115.687 219.893C112.944 219.532 110.642 220.152 108.494 221.883C107.407 222.761 106.346 223.717 104.975 224.13C103.836 224.44 102.646 224.363 101.482 224.104C97.4453 223.148 94.0298 220.074 89.7863 219.842C87.7421 219.738 86.0344 220.617 84.5595 221.96C82.3084 224.027 80.2901 226.455 76.9781 224.698C74.3648 223.303 72.657 220.333 69.6296 219.661C67.6373 219.222 65.1791 220.152 64.7393 222.322C64.6875 222.761 65.4379 222.968 65.5155 222.477Z" fill="#AEB3C2"/>
    <path d="M108.261 214.856C108.856 213.022 110.952 212.608 112.66 212.789C114.652 212.996 116.386 214.184 118.275 214.778C120.008 215.321 121.613 215.295 123.294 214.597C125.002 213.9 126.813 212.479 128.754 212.815C130.488 213.125 131.574 214.752 133.23 215.295C134.705 215.76 136.154 215.269 137.5 214.572C139.518 213.538 141.226 212.427 143.58 212.479C146.09 212.531 148.497 213.564 150.748 214.572C151.214 214.778 151.602 214.107 151.136 213.9C149.066 212.996 146.97 212.092 144.719 211.807C142.52 211.523 140.631 212.014 138.69 213.047C136.465 214.236 134.472 215.45 132.118 213.822C130.695 212.841 129.504 211.807 127.667 212.014C125.727 212.221 124.148 213.538 122.337 214.132C119.775 214.959 117.473 213.642 115.144 212.686C112.608 211.678 108.52 211.42 107.485 214.649C107.355 215.114 108.106 215.321 108.261 214.856Z" fill="#AEB3C2"/>
    <path d="M104.457 40.7391C104.768 42.5733 106.527 43.9166 108.39 43.8908C110.357 43.8649 111.677 42.2116 111.728 40.3516C111.78 38.5174 110.59 36.8383 108.701 36.6574C106.812 36.4766 104.923 37.6908 104.483 39.5766C104.38 40.0674 105.13 40.2741 105.234 39.7833C105.57 38.3883 106.89 37.4324 108.313 37.4324C109.943 37.4324 111.004 38.8274 110.952 40.3774C110.823 43.9683 105.777 43.8908 105.208 40.5841C105.13 40.0416 104.38 40.2483 104.457 40.7391Z" fill="#AEB3C2"/>
    <path d="M104.095 162.156C105.381 162.156 106.424 161.115 106.424 159.831C106.424 158.547 105.381 157.506 104.095 157.506C102.809 157.506 101.766 158.547 101.766 159.831C101.766 161.115 102.809 162.156 104.095 162.156Z" stroke="#AEB3C2" stroke-width="0.25875" stroke-miterlimit="10"/>
    <path d="M173.751 282.978C178.123 282.978 181.668 279.439 181.668 275.073C181.668 270.707 178.123 267.168 173.751 267.168C169.378 267.168 165.833 270.707 165.833 275.073C165.833 279.439 169.378 282.978 173.751 282.978Z" stroke="#AEB3C2" stroke-width="0.25875" stroke-miterlimit="10"/>
    <path d="M337.488 104.78C339.931 104.78 341.912 102.802 341.912 100.362C341.912 97.9226 339.931 95.9448 337.488 95.9448C335.044 95.9448 333.063 97.9226 333.063 100.362C333.063 102.802 335.044 104.78 337.488 104.78Z" stroke="#AEB3C2" stroke-width="0.25875" stroke-miterlimit="10"/>
    <path d="M148.29 19.7366C151.084 16.2233 156.078 19.1941 159.494 19.7366C163.116 20.305 165.6 18.1608 168.472 16.3266C170.258 15.19 171.965 14.6216 174.113 14.88C175.95 15.0866 177.787 15.655 179.65 15.2675C180.608 15.0608 181.487 14.5958 182.393 14.2341C183.661 13.7433 184.903 13.5883 186.248 13.8466C188.551 14.2858 190.621 15.6033 192.536 16.895C192.95 17.1791 193.338 16.5075 192.924 16.2233C191.009 14.9575 188.965 13.64 186.662 13.1491C184.696 12.71 183.04 13.1233 181.229 13.8983C178.77 14.9575 176.7 14.3891 174.165 14.105C172.302 13.8983 170.646 14.2083 169.016 15.1125C167.385 16.0166 165.962 17.2308 164.306 18.135C162.081 19.3233 159.882 19.1683 157.501 18.4708C154.396 17.5666 150.204 16.1458 147.746 19.1941C147.436 19.5816 147.979 20.1241 148.29 19.7366Z" fill="#AEB3C2"/>
    <path d="M168.213 27.9258C170.413 23.9475 175.432 23.5342 179.469 24.2575C181.694 24.645 183.868 25.3683 186.093 25.7817C187.775 26.0917 189.12 25.9108 190.492 24.8775C192.174 23.5858 193.545 22.5267 195.77 22.5267C197.814 22.5267 199.807 23.1983 201.67 23.9475C205.292 25.42 209.225 27.435 213.132 25.8333C213.598 25.6525 213.391 24.9033 212.925 25.0842C208.423 26.9183 204.076 23.8183 199.91 22.475C198.177 21.9325 196.314 21.545 194.502 21.8292C192.51 22.1392 191.371 23.3017 189.819 24.4125C187.671 25.9367 184.851 24.6967 182.548 24.1283C180.349 23.5858 178.098 23.095 175.821 23.1467C172.56 23.2242 169.197 24.5675 167.541 27.5383C167.308 27.9775 167.98 28.365 168.213 27.9258Z" fill="#AEB3C2"/>
    <path d="M83.8609 263.836C86.6333 263.836 88.8807 261.592 88.8807 258.824C88.8807 256.056 86.6333 253.812 83.8609 253.812C81.0886 253.812 78.8412 256.056 78.8412 258.824C78.8412 261.592 81.0886 263.836 83.8609 263.836Z" stroke="#AEB3C2" stroke-width="0.25875" stroke-miterlimit="10"/>
    <path d="M98.0144 174.194C99.3863 174.194 100.498 173.084 100.498 171.714C100.498 170.344 99.3863 169.234 98.0144 169.234C96.6425 169.234 95.5304 170.344 95.5304 171.714C95.5304 173.084 96.6425 174.194 98.0144 174.194Z" fill="#0864ED"/>
    <path d="M325.43 222.812C326.373 222.812 327.138 222.049 327.138 221.107C327.138 220.166 326.373 219.402 325.43 219.402C324.487 219.402 323.722 220.166 323.722 221.107C323.722 222.049 324.487 222.812 325.43 222.812Z" fill="#0864ED"/>
    <path d="M245.528 25.4199C247.171 25.4199 248.503 24.0898 248.503 22.4491C248.503 20.8084 247.171 19.4783 245.528 19.4783C243.884 19.4783 242.552 20.8084 242.552 22.4491C242.552 24.0898 243.884 25.4199 245.528 25.4199Z" fill="#0864ED"/>
    <path d="M120.655 192.536C122.599 192.536 124.174 190.963 124.174 189.022C124.174 187.082 122.599 185.509 120.655 185.509C118.712 185.509 117.136 187.082 117.136 189.022C117.136 190.963 118.712 192.536 120.655 192.536Z" fill="#191F33"/>
    <path d="M307.395 83.08C309.096 83.08 310.474 81.7036 310.474 80.0058C310.474 78.308 309.096 76.9316 307.395 76.9316C305.694 76.9316 304.316 78.308 304.316 80.0058C304.316 81.7036 305.694 83.08 307.395 83.08Z" fill="#191F33"/>
    <path d="M120.655 268.15C122.599 268.15 124.174 266.577 124.174 264.637C124.174 262.696 122.599 261.123 120.655 261.123C118.712 261.123 117.136 262.696 117.136 264.637C117.136 266.577 118.712 268.15 120.655 268.15Z" fill="#191F33"/>
    <path d="M271.895 252.004C272.671 250.402 274.586 249.55 276.319 250.067C277.82 250.506 278.441 252.133 279.812 252.779C282.245 253.942 283.719 250.919 285.453 249.86C288.118 248.232 290.188 252.211 292.931 251.591C294.535 251.229 295.363 249.524 296.993 249.059C297.873 248.801 298.83 248.827 299.71 249.085C300.693 249.395 301.47 250.118 302.401 250.506C303.022 250.79 303.669 250.919 304.316 250.687C305.222 250.377 305.739 249.498 306.671 249.188C308.844 248.491 311.276 249.963 313.036 251.1C313.45 251.384 313.838 250.712 313.424 250.428C311.949 249.472 310.345 248.568 308.585 248.31C307.887 248.207 307.136 248.207 306.464 248.439C305.584 248.697 305.118 249.447 304.342 249.782C302.97 250.377 301.961 249.292 300.849 248.723C300.176 248.387 299.477 248.155 298.701 248.103C297.149 247.974 295.7 248.517 294.509 249.55C293.681 250.273 293.009 251.048 291.792 250.79C290.99 250.635 290.266 250.092 289.567 249.679C288.506 249.059 287.29 248.413 286.022 248.749C284.78 249.085 283.926 250.118 283.047 250.971C282.529 251.487 281.934 252.082 281.184 252.211C280.071 252.417 279.347 251.487 278.674 250.764C276.552 248.517 272.723 248.62 271.248 251.617C271.015 252.056 271.688 252.443 271.895 252.004Z" fill="#AEB3C2"/>
    <path d="M296.786 246.605C297.304 245.313 298.442 244.383 299.814 244.099C301.314 243.763 302.531 244.487 303.85 245.133C304.704 245.572 305.661 246.011 306.645 245.908C307.757 245.778 308.378 244.926 309.232 244.306C310.422 243.402 312.104 243.273 313.424 244.022C314.148 244.435 314.718 245.313 315.675 245.081C316.089 244.978 316.4 244.668 316.762 244.487C317.616 244.073 318.547 244.099 319.453 244.332C320.902 244.693 322.221 245.572 323.412 246.424C323.826 246.708 324.214 246.037 323.8 245.753C321.782 244.306 318.884 242.523 316.374 243.815C315.908 244.048 315.623 244.461 314.976 244.228C314.692 244.125 314.381 243.712 314.123 243.557C313.657 243.247 313.139 243.014 312.596 242.911C311.535 242.678 310.371 242.782 309.413 243.298C307.913 244.099 307.214 245.649 305.247 244.952C303.876 244.461 302.712 243.453 301.211 243.298C298.986 243.04 296.89 244.409 296.062 246.424C295.855 246.863 296.605 247.07 296.786 246.605Z" fill="#AEB3C2"/>
    <path d="M301.702 193.13C302.686 191.58 305.014 191.322 306.256 192.665C306.903 193.362 307.369 194.473 308.508 194.396C309.258 194.344 309.801 193.776 310.371 193.362C311.25 192.717 312.234 192.019 313.372 192.174C314.614 192.355 315.623 193.724 316.969 193.207C317.667 192.949 318.133 192.277 318.754 191.89C319.427 191.451 320.203 191.167 320.979 191.012C322.842 190.624 324.576 191.037 326.18 191.993C327.526 192.82 327.966 191.838 329.156 191.218C330.941 190.288 333.192 190.65 334.641 191.967C335.004 192.303 335.573 191.761 335.185 191.425C334.02 190.392 332.545 189.849 330.993 189.952C330.32 190.004 329.673 190.133 329.078 190.417C328.017 190.882 327.577 191.683 326.258 191.141C324.654 190.495 323.36 189.952 321.574 190.133C320.151 190.288 318.806 190.805 317.693 191.709C317.02 192.226 316.477 192.691 315.468 192.277C315.054 192.122 314.718 191.812 314.329 191.657C313.76 191.399 313.191 191.322 312.544 191.399C311.638 191.528 310.836 192.045 310.112 192.562C309.75 192.82 309.361 193.259 308.947 193.414C307.835 193.853 307.602 193.13 307.033 192.458C305.428 190.521 302.375 190.521 300.978 192.742C300.771 193.156 301.444 193.543 301.702 193.13Z" fill="#AEB3C2"/>
    <path d="M326.31 187.162C326.905 186.155 327.991 185.587 329.156 185.612C330.501 185.664 330.889 186.646 331.976 187.111C332.52 187.343 332.985 187.24 333.425 186.878C334.538 186.026 335.288 185.302 336.789 185.328C337.436 185.328 338.057 185.509 338.626 185.819C339.014 186.026 339.325 186.362 339.739 186.465C340.489 186.646 340.981 186.181 341.524 185.742C343.672 184.088 346.725 184.192 348.691 186.077C349.054 186.413 349.597 185.871 349.235 185.535C347.605 184.011 345.276 183.417 343.128 184.037C342.585 184.192 342.067 184.424 341.602 184.708C340.955 185.122 340.437 185.871 339.558 185.535C339.04 185.328 338.626 184.941 338.083 184.76C337.539 184.579 336.97 184.527 336.401 184.553C335.418 184.605 334.434 184.941 333.658 185.561C333.451 185.716 333.27 186 333.037 186.129C332.131 186.697 332.028 186.232 331.459 185.767C331.174 185.535 330.889 185.328 330.527 185.173C328.742 184.372 326.542 185.122 325.585 186.801C325.378 187.188 326.051 187.602 326.31 187.162Z" fill="#AEB3C2"/>
    <path d="M137.06 190.753C130.953 196.747 124.743 203.463 118.559 210.929C100.291 233.017 88.0785 255.13 79.7726 273.885C80.2642 275.151 82.3083 280.008 87.7162 282.823C94.3143 286.259 100.731 283.908 101.715 283.521C108.675 269.829 118.223 253.968 131.264 237.667C138.897 228.108 146.582 219.868 153.879 212.815C148.29 205.478 142.675 198.116 137.06 190.753Z" fill="white" stroke="#191F33" stroke-width="1.035" stroke-miterlimit="10"/>
    <path opacity="0.14" d="M147.384 205.969C143.503 209.715 139.596 213.642 135.715 217.801C115.222 239.759 100.162 262.467 89.0101 283.418C90.3556 283.96 92.6326 284.658 95.5306 284.658C98.2475 284.658 100.421 284.012 101.741 283.521C106.217 273.833 112.142 262.828 120.06 251.333C131.471 234.748 143.606 222.089 153.905 212.815C151.705 210.568 149.558 208.268 147.384 205.969Z" fill="#AEB3C2"/>
    <path d="M213.624 236.711C261.482 236.711 300.279 197.976 300.279 150.195C300.279 102.414 261.482 63.6792 213.624 63.6792C165.766 63.6792 126.969 102.414 126.969 150.195C126.969 197.976 165.766 236.711 213.624 236.711Z" fill="white" stroke="#191F33" stroke-width="1.035" stroke-miterlimit="10"/>
    <path d="M212.667 231.338C257.238 231.338 293.371 195.263 293.371 150.763C293.371 106.263 257.238 70.1892 212.667 70.1892C168.095 70.1892 131.962 106.263 131.962 150.763C131.962 195.263 168.095 231.338 212.667 231.338Z" fill="white" stroke="#191F33" stroke-width="1.035" stroke-miterlimit="10"/>
    <path d="M120.732 117.076C119.697 117.49 117.342 118.549 115.428 121.029C113.72 123.225 113.202 125.446 113.021 126.557C116.825 129.528 120.163 131.801 122.699 133.429C130.202 138.286 134.213 139.836 135.3 140.249C140.164 142.083 143.062 142.316 143.89 142.367C145.727 142.471 148.677 142.651 152.015 141.515C154.577 140.636 156.336 139.345 160.916 135.134C166.35 130.148 169.222 127.177 169.222 127.177C180.452 115.552 180.374 116.818 184.203 112.091C188.473 106.795 194.709 99.0965 192.354 95.1957C191.164 93.2323 188.007 92.6123 182.806 91.6048C179.313 90.9332 177.942 91.2173 177.502 91.3207C174.5 92.044 172.689 94.3173 171.059 96.4615C165.599 103.566 162.882 107.105 161.045 109.921C159.622 112.091 157.19 115.836 153.516 120.564C151.058 123.741 149.738 125.162 147.564 125.886C145.21 126.661 143.166 126.196 139.259 125.266C137.835 124.93 135.119 124.206 130.487 122.14C127.951 121.003 124.587 119.35 120.732 117.076Z" fill="white"/>
    <path opacity="0.13" d="M183.04 98.5283C181.849 100.182 180.116 102.61 177.994 105.529C173.13 112.194 170.516 115.785 167.049 119.996C161.745 126.454 159.105 129.709 155.353 132.215C152.481 134.152 148.574 136.787 143.115 137.356C138.25 137.847 134.291 136.297 126.58 133.145C123.191 131.776 118.482 129.657 113.048 126.532C115.092 128.159 118.093 130.381 121.845 132.835C129.271 137.666 133.877 140.611 140.579 141.851C143.658 142.419 148.471 143.246 153.387 140.972C154.888 140.275 156.13 139.267 158.562 137.252C164.875 132.034 169.197 127.255 170.749 125.524C174.734 121.029 176.726 118.782 178.149 116.353C180.064 113.15 182.755 107.312 183.04 98.5283Z" fill="#AEB3C2"/>
    <path d="M177.399 90.9593C173.311 92.1218 170.542 95.7126 168.084 98.9418C165.238 102.662 162.78 106.64 160.218 110.567C157.656 114.493 155.017 118.42 151.86 121.908C150.023 123.923 148.29 126.041 145.314 125.783C142.701 125.576 140.01 125.214 137.474 124.491C134.654 123.69 132.066 122.321 129.453 121.003C126.606 119.583 123.76 118.136 120.914 116.715C120.474 116.483 120.086 117.154 120.526 117.387C125.313 119.789 130.074 122.553 135.093 124.491C137.396 125.395 139.803 125.86 142.261 126.17C144.59 126.48 147.099 127.074 149.144 125.602C150.929 124.336 152.43 122.476 153.827 120.797C155.276 119.066 156.621 117.258 157.889 115.398C160.606 111.497 163.064 107.415 165.729 103.488C167.334 101.138 168.99 98.8384 170.853 96.6684C172.716 94.4984 174.786 92.4576 177.606 91.6568C178.098 91.5534 177.891 90.8043 177.399 90.9593Z" fill="#191F33"/>
    <path d="M112.841 126.867C118.249 130.717 123.579 135.031 129.504 138.105C134.576 140.766 140.527 142.858 146.323 142.91C149.195 142.936 151.912 142.264 154.344 140.74C156.777 139.216 158.976 137.304 161.15 135.444C165.574 131.647 169.662 127.487 173.414 123.044C177.658 118.007 181.436 112.582 184.696 106.872C184.955 106.433 184.282 106.046 184.023 106.485C178.434 116.25 171.344 125.137 163.038 132.732C160.994 134.592 158.873 136.374 156.699 138.079C154.112 140.094 151.446 141.747 148.109 142.057C142.235 142.6 135.87 140.43 130.695 137.847C124.433 134.747 118.87 130.226 113.229 126.17C112.841 125.912 112.453 126.583 112.841 126.867Z" fill="#191F33"/>
    <path d="M33.8445 70.6034C34.7501 73.3934 36.0439 77.2167 37.6999 81.6859C43.3665 96.9017 49.68 109.818 55.4501 120.178C63.4714 134.618 72.0101 146.915 80.0831 157.171C81.5062 156.628 83.6021 155.698 85.8791 154.174C88.5184 152.392 90.1226 150.661 92.1667 148.491C94.8319 145.675 97.6522 142.988 100.317 140.147C112.039 127.618 111.211 128.703 113.048 126.558C115.635 123.536 119.206 119.118 123.113 113.383C121.612 112.195 119.542 110.438 117.265 108.165C113.902 104.807 111.081 101.319 107.536 96.0234C106.087 93.8534 103.008 89.1775 97.3676 78.7409C88.389 62.0784 86.6812 56.3692 85.9826 53.8375C84.87 49.7817 84.3007 46.3459 83.9644 43.9434C77.7544 46.5784 71.3374 49.5492 64.7134 52.8817C53.2766 58.6425 42.9784 64.6617 33.8445 70.6034Z" fill="white"/>
    <path d="M33.4564 70.706C41.4259 95.2476 52.7851 118.653 67.1716 140.094C71.1563 146.036 75.3739 151.823 79.7986 157.454C80.1091 157.842 80.6524 157.299 80.3419 156.912C64.4547 136.71 51.3619 114.313 41.5812 90.5718C38.8643 83.9843 36.4062 77.2935 34.2068 70.5251C34.0516 70.0085 33.3012 70.2151 33.4564 70.706Z" fill="#191F33"/>
    <path d="M33.9738 70.4216C49.9128 60.5533 66.6022 51.8733 83.835 44.485C84.3007 44.2783 83.8867 43.6325 83.4468 43.8133C66.2141 51.2016 49.5247 59.8816 33.5857 69.75C33.1458 70.0083 33.534 70.68 33.9738 70.4216Z" fill="#191F33"/>
    <path d="M83.5763 43.9426C84.689 54.7926 89.5276 64.6609 94.5215 74.1934C99.3083 83.3126 104.173 92.4834 110.409 100.724C113.798 105.219 117.628 109.404 121.949 113.047C122.337 113.357 122.88 112.814 122.492 112.504C114.756 105.994 108.779 97.7793 103.655 89.1509C101.12 84.9143 98.7908 80.5743 96.488 76.2084C94.0298 71.5326 91.5458 66.8826 89.45 62.0259C86.966 56.2651 85.0253 50.2201 84.3785 43.9426C84.3008 43.4518 83.5246 43.4518 83.5763 43.9426Z" fill="#191F33"/>
    <path d="M80.523 157.248C83.9644 156.318 86.7848 154.148 89.3464 151.745C92.322 148.955 95.1941 146.036 98.0145 143.091C103.862 137.046 109.477 130.768 114.859 124.31C117.809 120.771 120.681 117.18 123.476 113.538C123.579 113.408 123.527 113.176 123.424 113.073C123.139 112.788 122.855 112.504 122.596 112.22C122.234 111.858 121.69 112.401 122.052 112.763C122.337 113.047 122.622 113.331 122.88 113.615C122.855 113.46 122.829 113.305 122.829 113.15C116.515 121.365 109.814 129.322 102.776 136.943C99.3083 140.714 95.7375 144.408 92.0891 147.999C88.6736 151.383 85.1546 155.155 80.3419 156.473C79.8244 156.628 80.0314 157.377 80.523 157.248Z" fill="#191F33"/>
    <path d="M55.6871 92.3445C59.9356 90.507 61.501 84.6874 59.1834 79.346C56.8658 74.0045 51.5428 71.164 47.2943 73.0015C43.0457 74.839 41.4804 80.6587 43.798 86.0001C46.1156 91.3415 51.4385 94.182 55.6871 92.3445Z" stroke="#191F33" stroke-width="0.5175" stroke-miterlimit="10"/>
    <path d="M47.0666 80.0576C47.8428 81.5301 49.7576 84.3976 51.8276 83.2351C53.7682 82.1243 52.2675 78.7401 51.336 77.4484C51.0513 77.0351 50.3786 77.4226 50.6632 77.8359C51.2842 78.6884 52.9661 81.9434 51.2583 82.6409C49.7576 83.2609 48.2827 80.6776 47.7393 79.6701C47.5065 79.2309 46.8337 79.6184 47.0666 80.0576Z" fill="#191F33"/>
    <path d="M50.8184 83.6483C51.1548 84.01 49.4729 85.5083 49.2659 85.7925C48.8778 86.335 48.6708 86.955 48.5673 87.6008C48.3861 89.0475 48.9295 90.4425 49.4729 91.7858C49.654 92.2508 50.4044 92.0442 50.2233 91.5792C49.3435 89.4092 48.8001 87.4717 50.5079 85.5858C51.1289 84.9142 52.1898 84.01 51.3618 83.1058C51.0254 82.7442 50.482 83.2867 50.8184 83.6483Z" fill="#191F33"/>
    <path d="M52.4744 82.3052C53.1472 82.8993 53.7941 83.3127 54.7256 83.1577C55.4501 83.0543 56.0969 82.6668 56.8214 82.7702C57.8047 82.8993 58.4774 83.7777 59.0726 84.501C59.3831 84.8885 59.9264 84.346 59.6159 83.9585C58.9173 83.106 58.1411 82.2018 56.9767 81.9952C55.4501 81.7368 54.4151 83.0027 53.0178 81.7627C52.6556 81.4268 52.1122 81.9693 52.4744 82.3052Z" fill="#191F33"/>
    <path d="M51.1807 84.3718C52.2933 85.0176 53.2248 83.9584 53.6388 83.0284C53.8458 82.5892 53.1731 82.1759 52.9661 82.6409C52.7332 83.1317 52.2416 84.1134 51.5688 83.7001C51.1289 83.4417 50.7408 84.1134 51.1807 84.3718Z" fill="#191F33"/>
    <path d="M49.2661 87.136C50.8444 88.0918 51.5689 90.7269 51.9571 92.406C52.0606 92.8968 52.8109 92.6902 52.7074 92.1993C52.2676 90.2877 51.4654 87.5494 49.6542 86.4644C49.2402 86.206 48.8262 86.8777 49.2661 87.136Z" fill="#191F33"/>
    <path d="M56.0452 82.5376C56.718 84.4493 57.8047 86.1285 59.2796 87.5235C59.6418 87.8593 60.1852 87.3168 59.823 86.981C58.4257 85.6893 57.3907 84.1393 56.7697 82.331C56.6403 81.866 55.89 82.0726 56.0452 82.5376Z" fill="#191F33"/>
    <path d="M47.4029 77.5C47.9722 77.7067 48.5414 77.8617 49.1366 77.9134C49.9128 77.9909 50.7667 77.7584 51.4136 78.3525C51.8534 78.7659 52.1898 79.5667 52.5262 80.0834C52.9919 80.8067 53.4577 81.53 53.9234 82.2534C54.1822 82.6667 54.8549 82.2792 54.5962 81.8659C54.0528 81.0134 53.4836 80.135 52.9402 79.2825C52.5779 78.74 52.2674 77.9909 51.7758 77.5517C51.3877 77.2159 50.9478 77.19 50.4562 77.19C49.4471 77.1642 48.5932 77.1384 47.6358 76.7767C47.1442 76.57 46.9372 77.3192 47.4029 77.5Z" fill="#191F33"/>
    <path d="M47.0149 76.8544C46.8596 77.7844 46.8079 78.7144 46.8596 79.6702C46.8855 80.161 47.6617 80.161 47.6359 79.6702C47.5841 78.7919 47.61 77.9394 47.7652 77.061C47.8429 76.5702 47.0925 76.3636 47.0149 76.8544Z" fill="#191F33"/>
    <path d="M49.1883 86.2317C47.3512 83.5709 42.9007 77.2417 47.7135 75.175C51.6723 73.47 54.9326 79.5409 56.2522 82.3825C56.4592 82.8475 57.132 82.4342 56.925 81.995C55.4242 78.7142 51.7241 72.3334 47.2218 74.555C42.0986 77.0609 46.4197 83.5709 48.5415 86.6192C48.8002 87.0325 49.473 86.645 49.1883 86.2317Z" fill="#191F33"/>
    <path d="M59.8747 71.2742C62.8245 69.7759 65.7742 68.2775 68.724 66.7792C69.1639 66.5467 68.7757 65.875 68.3359 66.1075C65.3861 67.6059 62.4364 69.1042 59.4866 70.6025C59.0209 70.835 59.409 71.5067 59.8747 71.2742Z" fill="#191F33"/>
    <path d="M60.5474 75.3044C67.4561 71.8169 74.2612 68.1486 80.9628 64.3252C81.4027 64.0669 81.0146 63.3952 80.5747 63.6536C73.8731 67.5027 67.0679 71.1452 60.1593 74.6327C59.7194 74.8394 60.1076 75.5111 60.5474 75.3044Z" fill="#191F33"/>
    <path d="M63.1867 79.4894C66.6022 77.8877 69.9919 76.286 73.1745 74.271C73.5885 74.0127 73.2004 73.341 72.7864 73.5994C69.6037 75.6144 66.2141 77.2419 62.7986 78.8177C62.3587 79.0244 62.7469 79.696 63.1867 79.4894Z" fill="#191F33"/>
    <path d="M64.8686 84.0877C70.9492 80.9619 76.9781 77.6811 82.9035 74.2969C83.3434 74.0386 82.9552 73.3669 82.5154 73.6252C76.5641 77.0352 70.5611 80.2902 64.4805 83.4161C64.0406 83.6486 64.4287 84.3202 64.8686 84.0877Z" fill="#191F33"/>
    <path d="M55.2432 107.518C65.7743 101.499 76.3313 95.5317 86.94 89.6417C87.3799 89.4092 86.9918 88.7376 86.5519 88.9701C75.9432 94.8601 65.3862 100.828 54.855 106.847C54.4152 107.105 54.8292 107.777 55.2432 107.518Z" fill="#191F33"/>
    <path d="M57.7271 112.866C62.3329 109.766 67.0939 106.873 71.9842 104.238C72.4241 104.005 72.036 103.334 71.5961 103.566C66.7057 106.227 61.9447 109.094 57.339 112.194C56.925 112.479 57.3131 113.15 57.7271 112.866Z" fill="#191F33"/>
    <path d="M63.2385 118.239C70.8716 112.917 78.6858 107.854 86.6812 103.075C87.1211 102.817 86.7071 102.145 86.2931 102.403C78.3236 107.182 70.5093 112.246 62.8503 117.567C62.4363 117.852 62.8245 118.523 63.2385 118.239Z" fill="#191F33"/>
    <path d="M67.0162 125.524C74.494 120.099 82.1272 114.907 89.9155 109.947C90.3295 109.688 89.9414 109.017 89.5274 109.275C81.739 114.235 74.1059 119.428 66.628 124.853C66.214 125.137 66.6022 125.808 67.0162 125.524Z" fill="#191F33"/>
    <path d="M72.0101 135.987C81.5062 128.831 90.9764 121.701 100.473 114.545C100.861 114.261 100.473 113.563 100.084 113.873C90.5883 121.029 81.1181 128.159 71.6219 135.315C71.2079 135.625 71.5961 136.297 72.0101 135.987Z" fill="#191F33"/>
    <path d="M79.1256 140.74C85.6202 135.263 92.296 130.019 99.1529 124.982C99.541 124.698 99.1529 124.026 98.7648 124.31C91.8561 129.373 85.1286 134.669 78.5823 140.172C78.1941 140.533 78.7375 141.076 79.1256 140.74Z" fill="#191F33"/>
    <path d="M104.173 89.7716C104.406 89.3841 104.716 88.8157 105.001 88.0924C105.234 87.4724 105.492 86.4649 105.441 83.2357C105.389 80.1357 105.053 78.9991 104.664 78.1466C104.095 76.8032 103.604 76.5966 103.397 76.5191C102.517 76.2091 101.559 76.9066 100.059 78.0432C97.1089 80.2907 96.2033 82.2541 95.8928 83.0807C95.5823 83.8816 95.3494 84.4757 95.6341 84.8374C96.2292 85.6124 98.6614 84.7082 100.654 83.8041C101.844 85.8191 103.008 87.7824 104.173 89.7716Z" fill="white"/>
    <path d="M105.13 89.2284C106.01 85.715 106.191 81.7625 105.104 78.2492C104.794 77.2417 104.147 76.1309 102.983 76.0275C101.663 75.8984 100.369 77.3192 99.4377 78.0942C98.2475 79.0759 97.109 80.1867 96.281 81.5042C95.7635 82.3309 94.8061 83.9325 95.2719 84.9659C96.3069 87.3167 101.068 83.9325 102.155 83.1834C102.569 82.8992 102.18 82.2275 101.766 82.5117C100.861 83.1575 99.9035 83.7259 98.8944 84.1909C98.3769 84.4492 97.8076 84.7075 97.2384 84.8625C95.8411 85.1984 96.0481 83.7259 96.4104 82.925C97.2125 81.1425 98.6615 79.7217 100.162 78.5075C101.146 77.7067 103.06 75.8725 104.069 77.7325C104.665 78.7917 104.82 80.3934 104.949 81.6075C105.208 84.1134 105.001 86.6192 104.38 89.0475C104.251 89.5125 105.001 89.7192 105.13 89.2284Z" fill="#191F33"/>
    <path d="M203.067 179.878C202.989 180.24 203.093 179.853 202.731 185.846C202.084 197.006 201.359 205.608 200.738 213.178C200.48 216.226 200.117 220.437 199.652 225.448C208.397 227.748 219.058 229.091 230.805 227.412C232.28 227.205 233.703 226.947 235.1 226.663C235.049 221.238 234.971 215.813 234.919 210.388C237.507 215.115 240.12 219.843 242.708 224.57C246.563 223.408 251.841 221.367 257.456 217.647C263.537 213.617 267.677 209.122 270.264 205.841C265.478 196.851 262.58 189.23 260.794 183.753C258.388 176.391 256.551 168.46 249.901 160.116C248.064 157.817 247.158 156.68 245.916 155.879C234.065 148.284 206.379 162.518 203.067 179.878Z" fill="white"/>
    <path opacity="0.19" d="M242.475 161.148C243.328 163.757 244.208 166.392 245.062 169.027C250.392 185.457 255.283 201.732 259.759 217.775C261.7 216.277 264.003 214.236 266.254 211.549C267.936 209.534 269.229 207.571 270.238 205.84C268.505 202.249 266.124 197.108 263.485 190.805C259.94 182.357 256.447 173.574 256.447 173.574C252.618 164.429 251.324 161.742 248.969 158.358C247.391 156.111 245.942 154.406 244.907 153.269C244.105 155.904 243.303 158.513 242.475 161.148Z" fill="#AEB3C2"/>
    <path d="M202.679 179.877C201.877 194.835 200.738 209.767 199.263 224.672C199.212 225.163 199.988 225.163 200.04 224.672C201.515 209.767 202.653 194.835 203.455 179.877C203.481 179.387 202.705 179.387 202.679 179.877Z" fill="#191F33"/>
    <path d="M248.167 157.687C255.412 173.807 262.657 189.901 269.902 206.021C270.109 206.486 270.782 206.072 270.575 205.633C263.33 189.513 256.085 173.419 248.84 157.299C248.633 156.834 247.96 157.247 248.167 157.687Z" fill="#191F33"/>
    <path d="M219.938 192.923C223.431 192.846 225.992 195.403 227.726 198.167C229.408 200.854 230.831 203.747 232.358 206.537C235.592 212.479 238.852 218.421 242.087 224.388C242.319 224.827 242.992 224.44 242.759 224.001C239.189 217.439 235.618 210.903 232.047 204.341C229.434 199.562 226.51 192.019 219.938 192.174C219.42 192.148 219.42 192.923 219.938 192.923Z" fill="#191F33"/>
    <path d="M234.531 210.309C234.583 215.76 234.661 221.211 234.712 226.662C234.712 227.152 235.489 227.152 235.489 226.662C235.437 221.211 235.359 215.76 235.307 210.309C235.282 209.792 234.505 209.792 234.531 210.309Z" fill="#191F33"/>
    <path d="M188.862 83.1319C184.204 86.2061 177.71 90.4944 174.915 98.5544C172.974 104.134 173.673 109.017 174.656 115.966C175.019 118.446 176.183 125.679 180.633 135.625C184.178 143.556 186.818 146.501 190.854 153.295C194.425 159.289 198.979 168.098 202.808 179.929C207.673 180.601 211.476 180.162 214.012 179.671C217.221 179.051 223.327 177.372 242.682 162.259C245.321 160.193 247.469 158.462 248.918 157.274C244.778 139.759 239.68 119.066 233.47 95.3252C231.374 87.3427 229.227 79.5152 222.422 75.7952C210.157 69.0786 192.303 80.8586 188.862 83.1319Z" fill="#191F33"/>
    <path d="M225.19 83.5458C224.802 83.8558 223.974 84.6308 222.81 89.2033C220.481 98.2192 221.878 102.275 222.421 103.644C223.819 112.35 223.819 121.237 224.75 129.994C225.708 139.217 225.397 148.155 224.724 166.058C224.414 174.608 224.103 177.14 223.146 197.988C222.913 203.025 222.732 207.184 222.628 209.923C220.093 211.498 217.945 212.48 216.393 213.1C214.762 213.772 213.65 214.056 212.511 215.089C211.036 216.407 210.39 218.112 210.079 219.378C209.329 219.791 208.19 220.385 206.767 221.057C202.989 222.891 202.653 222.762 201.618 223.563C199.548 225.138 198.798 227.308 197.892 229.685C197.193 231.545 196.21 235.007 197.064 235.472C197.763 235.859 199.419 234.103 200.454 233.018C202.213 231.158 202.756 229.943 203.74 228.678C204.775 227.36 206.534 225.681 209.639 224.389C208.552 224.958 205.525 226.766 204.438 230.253C203.766 232.372 204.076 234.309 204.335 235.963C204.723 238.365 205.525 240.225 206.172 241.413C206.664 241.362 207.388 241.233 208.138 240.819C209.613 239.993 210.079 238.675 211.114 236.634C212.071 234.748 213.132 232.63 214.685 230.951C215.901 229.633 217.298 228.729 218.721 228.083C218.385 229.737 218.178 231.158 218.023 232.217C217.971 232.604 217.505 235.808 217.816 239.631C217.893 240.483 217.997 241.439 218.54 241.646C219.161 241.878 219.963 241.103 220.093 240.974C221.335 239.812 221.154 238.288 221.49 236.298C222.085 232.759 223.87 230.253 224.517 229.349C225.371 228.161 225.371 228.497 227.7 225.836C229.485 223.769 230.391 222.71 230.934 221.754C231.633 220.514 232.668 218.008 231.969 213.798C232.978 209.303 234.272 203.387 235.592 196.386C236.704 190.418 238.49 180.783 239.991 167.969C241.051 158.773 241.517 151.798 241.776 147.742C242.371 138.493 242.733 132.862 242.552 124.905C242.319 115.373 241.672 117.956 241.129 105.711C241.129 105.711 240.844 99.4333 238.852 91.8642C238.619 90.9858 238.024 88.8158 236.394 86.5167C235.359 85.0442 234.246 83.4683 232.15 82.6675C229.977 81.8667 227.105 81.97 225.19 83.5458Z" fill="white"/>
    <path opacity="0.25" d="M232.073 82.6667C232.59 85.9734 233.289 90.5717 233.962 96.1001C235.1 105.452 236.912 123.328 236.601 146.785C236.368 163.99 236.213 177.553 232.616 195.713C230.831 204.833 228.735 212.298 227.105 217.543C225.294 219.971 223.094 223.433 221.361 227.902C219.239 233.378 218.618 238.261 218.463 241.645C218.825 241.516 219.342 241.283 219.86 240.844C221.49 239.423 221.335 237.202 221.749 235.238C222.059 233.663 223.172 232.087 225.345 228.961C229.382 223.2 231.685 222.709 232.487 219.299C233.004 217.103 232.59 215.063 232.073 213.564C232.409 211.963 232.875 209.612 233.444 206.796C235.049 198.658 237.972 183.701 239.913 167.968C241.88 151.874 242.035 141.153 242.294 120.487C242.319 119.092 241.491 111.419 239.81 96.1259C239.654 94.7826 239.344 92.1734 237.843 89.2542C236.135 85.9476 233.703 83.8551 232.073 82.6667Z" fill="#AEB3C2"/>
    <path d="M224.854 83.5968C221.18 89.7968 221.49 97.2368 222.059 104.16C222.784 112.608 223.845 121.003 224.31 129.477C225.268 146.553 224.492 163.68 223.612 180.756C223.12 190.314 222.629 199.847 222.137 209.405C222.111 209.896 222.887 209.896 222.913 209.405C223.793 192.51 224.854 175.615 225.345 158.72C225.578 150.35 225.63 141.954 225.294 133.584C224.957 125.266 224.078 116.999 223.25 108.707C222.447 100.569 221.128 91.3984 225.501 83.9843C225.759 83.5451 225.087 83.1576 224.854 83.5968Z" fill="#191F33"/>
    <path d="M225.449 83.8291C229.02 80.5999 233.832 83.4158 236.006 86.7741C238.335 90.3133 239.266 94.6274 239.861 98.7608C241.181 107.932 241.647 117.283 241.776 126.557C242.061 145.287 240.405 164.016 237.507 182.512C235.903 192.82 233.884 203.076 231.633 213.28C231.53 213.771 232.28 213.977 232.383 213.487C236.679 194.215 239.991 174.711 241.569 155.026C242.371 145.157 242.708 135.237 242.526 125.317C242.423 120.409 242.216 115.501 241.828 110.592C241.466 105.891 241.103 101.137 240.25 96.4874C239.473 92.1733 238.102 87.3424 234.868 84.1908C232.202 81.5816 227.829 80.5999 224.88 83.2866C224.543 83.5966 225.087 84.1649 225.449 83.8291Z" fill="#191F33"/>
    <path d="M222.396 209.586C220.921 210.619 219.368 211.523 217.686 212.195C216.548 212.66 215.332 212.892 214.219 213.409C211.813 214.494 210.441 216.871 209.665 219.299C209.51 219.764 210.26 219.971 210.415 219.506C211.321 216.793 212.848 214.597 215.694 213.719C218.256 212.944 220.584 211.782 222.784 210.257C223.198 209.973 222.81 209.302 222.396 209.586Z" fill="#191F33"/>
    <path d="M217.195 215.683C212.511 217.801 207.802 219.893 203.222 222.218C201.385 223.148 199.807 224.259 198.823 226.093C197.84 227.902 197.348 230.02 196.909 232.009C196.676 233.043 195.874 235.264 197.038 236.065C198.332 236.969 199.6 234.773 200.195 233.998C203.067 230.278 205.628 225.835 210.389 224.337C210.855 224.182 210.674 223.433 210.182 223.588C206.948 224.595 204.542 226.946 202.523 229.581C201.23 231.234 200.091 232.991 198.72 234.593C198.539 234.799 198.383 235.006 198.176 235.213C197.866 235.161 197.555 235.135 197.271 235.083C197.012 234.773 197.323 233.766 197.4 233.43C197.607 232.371 197.84 231.338 198.125 230.304C198.616 228.418 199.211 226.378 200.609 224.931C201.98 223.484 203.972 222.735 205.732 221.883C209.665 219.997 213.624 218.163 217.609 216.38C218.048 216.148 217.66 215.476 217.195 215.683Z" fill="#191F33"/>
    <path d="M210.752 223.174C207.802 225.137 204.438 227.514 203.766 231.26C203.403 233.327 203.817 235.548 204.154 237.589C204.412 239.217 204.645 240.922 206.017 241.981C206.25 242.162 206.508 241.955 206.586 241.748C207.621 239.217 207.699 236.478 208.501 233.895C209.432 230.95 211.657 229.064 214.038 227.256C214.426 226.972 214.038 226.274 213.65 226.584C211.476 228.212 209.277 229.942 208.19 232.5C206.948 235.393 207.026 238.648 205.836 241.542C206.017 241.464 206.224 241.387 206.405 241.309C205.085 240.302 205.008 238.183 204.775 236.685C204.49 234.747 204.102 232.603 204.671 230.666C205.577 227.54 208.553 225.551 211.114 223.846C211.554 223.562 211.166 222.89 210.752 223.174Z" fill="#191F33"/>
    <path d="M206.043 241.8C207.311 242.188 208.268 241.335 209.044 240.405C210.131 239.088 210.985 237.615 211.813 236.143C213.598 233.017 215.409 229.684 218.825 228.083C219.265 227.876 218.877 227.204 218.437 227.411C215.901 228.625 214.116 230.795 212.693 233.146C211.89 234.438 211.192 235.781 210.416 237.098C209.691 238.287 208.035 241.619 206.276 241.077C205.758 240.896 205.551 241.645 206.043 241.8Z" fill="#191F33"/>
    <path d="M231.504 213.332C231.633 215.269 231.762 217.258 231.374 219.17C231.012 221.004 230.106 222.554 228.89 223.975C226.768 226.429 224.284 228.418 222.835 231.389C222.137 232.836 221.619 234.386 221.154 235.936C220.921 236.763 220.688 237.615 220.455 238.468C220.196 239.372 220.093 241.103 218.799 240.922C217.583 240.767 218.1 235.574 218.152 234.748C218.281 232.526 218.592 230.356 219.084 228.186C219.187 227.695 218.437 227.488 218.333 227.979C217.816 230.356 217.479 232.784 217.35 235.238C217.298 236.349 217.298 237.486 217.324 238.597C217.35 239.398 217.35 240.328 217.816 241.025C218.411 241.878 219.601 242.162 220.3 241.309C220.869 240.638 220.973 239.501 221.205 238.674C221.49 237.615 221.775 236.556 222.085 235.523C222.784 233.198 223.715 230.924 225.242 229.013C226.484 227.463 228.01 226.145 229.304 224.673C230.52 223.303 231.504 221.805 231.969 220.023C232.564 217.853 232.409 215.553 232.28 213.332C232.254 212.841 231.478 212.841 231.504 213.332Z" fill="#191F33"/>
    <path d="M179.236 30.7416C174.216 34.0741 172.871 39.7316 171.241 46.7325C170.309 50.6591 167.075 64.5058 174.734 75.3558C176.338 77.6291 180.426 83.4158 185.731 82.8475C189.017 82.5116 191.268 79.8766 192.225 78.6108C194.295 80.8325 196.365 83.08 198.435 85.3016C200.324 84.94 203.067 84.1391 205.887 82.3566C213.132 77.7325 215.28 69.9825 216.393 65.875C217.453 62 219.86 53.2425 215.383 44.5625C213.21 40.3516 210.338 37.9233 208.708 36.58C201.696 30.7158 188.085 24.9033 179.236 30.7416Z" fill="white"/>
    <path opacity="0.27" d="M196.391 40.8942C197.607 43.0901 199.289 46.7842 199.548 51.5376C199.962 58.7451 196.96 64.2217 194.218 69.1817C192.588 72.1526 189.871 76.3634 185.55 80.7034C187.361 80.3676 189.664 79.7476 192.199 78.5851C195.718 76.9317 198.228 74.8134 199.807 73.2634C200.143 74.2709 202.265 80.3676 205.215 80.3417C206.275 80.3159 207.078 79.5151 207.543 78.9984C218.126 67.5542 217.919 57.5309 217.919 57.5309C217.867 54.8701 217.35 49.9876 214.374 45.2084C213.339 43.5292 212.175 41.6951 210.027 40.3776C204.516 37.0192 197.426 40.4034 196.391 40.8942Z" fill="#AEB3C2"/>
    <path d="M181.927 31.1292C182.962 30.6642 184.463 30.225 185.731 30.8192C188.085 31.93 188.034 35.8308 188.629 38.285C189.457 41.7983 193.105 46.0608 205.24 49.5225C205.706 47.7142 207.052 46.345 208.656 46.0609C211.088 45.6733 213.184 47.9984 213.572 50.065C213.805 51.3825 213.313 52.4417 212.822 53.5525C212.382 54.5342 211.295 56.885 209.199 57.195C208.345 57.3242 207.621 57.0658 207.207 56.8592C207.207 58.3317 207.129 60.5017 206.715 63.1108C205.758 69.0008 203.766 72.4625 202.679 75.4075C201.592 78.3525 198.798 86.955 202.524 92.8967C206.482 99.2258 217.583 102.016 224.466 97.4692C229.899 93.8783 230.753 87.0325 231.167 83.6225C231.555 80.4192 231.4 77.0867 227.053 63.705C223.793 53.63 222.163 48.6183 218.825 41.7984C212.563 28.985 208.113 25.7042 206.793 24.7742C205.033 23.5342 201.178 20.8992 195.667 20.2017C186.507 19.0392 177.14 23.7667 172.198 30.69C169.507 34.4875 168.783 40.3258 167.334 51.9767C166.868 55.7742 166.609 61.5608 166.117 73.1083C165.755 81.4525 165.755 84.1908 166.583 88.0142C167.566 92.5867 168.679 97.8308 173.285 101.396C174.061 101.99 179.443 106.175 185.472 104.289C191.527 102.403 193.571 95.8675 194.166 93.9558C196.469 86.5158 193.105 80.0575 192.277 78.585C190.052 79.2825 187.853 80.0058 185.627 80.7033C184.204 80.2125 182.134 79.3083 179.986 77.655C176.209 74.7358 174.553 71.1967 173.88 69.75C173.181 68.2258 172.405 66.0558 171.888 61.845C171.137 55.6967 170.439 49.7292 173.104 42.9867C175.303 37.4067 178.977 33.5317 181.927 31.1292Z" fill="#0864ED"/>
    <path d="M172.224 42.8576C171.008 50.6851 170.18 58.9776 172.69 66.6759C174.656 72.7209 178.719 78.2751 184.67 80.8842C185.136 81.0909 185.524 80.4192 185.058 80.2126C179.159 77.6292 175.2 72.1267 173.311 66.1076C170.982 58.6676 171.784 50.6592 172.949 43.0642C173.052 42.5734 172.302 42.3667 172.224 42.8576Z" fill="#191F33"/>
    <path d="M185.161 80.9876C191.164 80.0317 196.753 76.9059 201.049 72.6434C205.111 68.6392 208.19 63.2142 207.595 57.3501C207.543 56.8592 206.767 56.8592 206.819 57.3501C207.414 63.1626 204.283 68.4842 200.195 72.3851C196.003 76.3892 190.699 79.3342 184.928 80.2384C184.463 80.3159 184.67 81.0651 185.161 80.9876Z" fill="#191F33"/>
    <path d="M206.974 57.1692C208.863 58.3834 210.907 56.9367 212.097 55.4125C213.495 53.63 214.219 51.2275 213.831 48.98C213.469 46.9134 211.968 45.3892 209.794 45.4667C207.466 45.5442 205.836 47.3784 204.878 49.3159C204.671 49.755 205.344 50.1684 205.551 49.7034C206.301 48.1792 207.414 46.7067 209.173 46.3192C211.295 45.8542 212.822 47.3267 213.081 49.3417C213.288 50.9692 212.899 52.6484 212.071 54.0692C211.192 55.5675 209.225 57.7375 207.336 56.5234C206.948 56.2392 206.56 56.9109 206.974 57.1692Z" fill="#191F33"/>
    <path d="M191.941 78.8692C193.493 80.8583 195.175 82.7183 196.986 84.475C197.478 84.94 198.151 85.87 198.901 85.8958C199.677 85.9217 200.686 85.1467 201.359 84.8108C201.799 84.5783 201.411 83.9325 200.971 84.1392C199.936 84.6558 199.082 85.1983 198.021 84.3975C197.297 83.855 196.702 83.1058 196.081 82.46C194.813 81.1425 193.623 79.7475 192.484 78.3008C192.199 77.9392 191.656 78.4817 191.941 78.8692Z" fill="#191F33"/>
    <path d="M180.97 66.8824C185.627 66.9857 188.422 62.9815 190.621 59.4682C190.88 59.0549 190.207 58.6415 189.948 59.0807C187.904 62.3615 185.317 66.2107 180.944 66.1074C180.478 66.1074 180.478 66.8824 180.97 66.8824Z" fill="#191F33"/>
    <path d="M189.25 52.3124C190 52.3124 190 51.1499 189.25 51.1499C188.499 51.1499 188.499 52.3124 189.25 52.3124Z" fill="#191F33"/>
    <path d="M192.976 50.6076C193.726 50.6076 193.726 49.4451 192.976 49.4451C192.225 49.4451 192.225 50.6076 192.976 50.6076Z" fill="#191F33"/>
    <path d="M192.665 54.3275C193.416 54.3275 193.416 53.165 192.665 53.165C191.915 53.165 191.915 54.3275 192.665 54.3275Z" fill="#191F33"/>
    <path d="M173.906 55.5417C173.906 55.5159 173.906 55.4642 173.906 55.4384C173.906 55.1284 173.647 54.8442 173.311 54.8442C173 54.8701 172.715 55.1026 172.715 55.4384C172.715 55.4642 172.715 55.5159 172.715 55.5417C172.715 55.8517 172.974 56.1359 173.311 56.1359C173.647 56.1101 173.906 55.8776 173.906 55.5417Z" fill="#191F33"/>
    <path d="M175.665 55.2834C176.416 55.2834 176.416 54.1208 175.665 54.1208C174.915 54.1208 174.915 55.2834 175.665 55.2834Z" fill="#191F33"/>
    <path d="M175.562 59.9591C176.312 59.9591 176.312 58.7966 175.562 58.7966C174.811 58.7966 174.811 59.9591 175.562 59.9591Z" fill="#191F33"/>
    <path d="M179.055 41.7466C178.563 48.7474 178.356 55.7482 178.434 62.7491C178.434 63.1624 178.951 63.2399 179.158 62.9557C180.116 61.6641 181.047 60.3724 182.005 59.0807C182.289 58.6674 181.617 58.2799 181.332 58.6932C180.375 59.9849 179.443 61.2766 178.486 62.5682C178.719 62.6457 178.977 62.6974 179.21 62.7749C179.133 55.7741 179.34 48.7732 179.831 41.7724C179.883 41.2557 179.107 41.2557 179.055 41.7466Z" fill="#191F33"/>
    <path d="M175.665 51.5374C176.137 51.5374 176.519 50.3923 176.519 48.9799C176.519 47.5674 176.137 46.4224 175.665 46.4224C175.194 46.4224 174.811 47.5674 174.811 48.9799C174.811 50.3923 175.194 51.5374 175.665 51.5374Z" fill="#191F33"/>
    <path d="M188.215 48.4375C188.686 48.4375 189.068 47.2925 189.068 45.88C189.068 44.4675 188.686 43.3225 188.215 43.3225C187.743 43.3225 187.361 44.4675 187.361 45.88C187.361 47.2925 187.743 48.4375 188.215 48.4375Z" fill="#191F33"/>
    <path d="M174.035 43.865C174.527 42.8833 175.562 41.2558 176.856 42.1083C177.27 42.3925 177.658 41.7208 177.244 41.4366C175.536 40.3258 174.035 42.0825 173.362 43.4775C173.13 43.9166 173.802 44.3041 174.035 43.865Z" fill="#191F33"/>
    <path d="M185.575 39.3441C186.455 36.7866 189.534 36.2441 191.32 38.2332C191.656 38.5949 192.199 38.0524 191.863 37.6907C189.664 35.2366 185.886 36.0632 184.825 39.1374C184.644 39.6024 185.394 39.8091 185.575 39.3441Z" fill="#191F33"/>
</svg>
