<svg width="414" height="310" viewBox="0 0 414 310" fill="none" xmlns="http://www.w3.org/2000/svg">
    <path d="M28.54 251.281C34.5689 243.505 45.2553 243.247 54.0787 245.081C59.176 246.14 64.1699 247.664 69.1897 249.059C74.3905 250.48 79.5914 251.927 84.7923 253.347C90.6659 254.975 96.5137 256.577 102.387 258.204C102.879 258.333 103.086 257.584 102.594 257.455C91.7009 254.458 80.7817 251.436 69.8883 248.439C60.2369 245.778 49.7058 241.722 39.5887 243.867C35.0864 244.822 30.817 247.044 27.9708 250.712C27.6862 251.126 28.2295 251.668 28.54 251.281Z" fill="#AEB3C2"/>
    <path d="M66.2657 247.69C69.0085 246.347 70.1729 242.782 73.1485 241.852C76.2017 240.896 79.5913 242.782 82.3858 240.715C83.602 239.811 84.5076 238.313 85.9825 237.77C87.2762 237.305 88.6217 237.822 89.8637 238.209C90.9246 238.545 91.9855 238.855 93.0463 239.191C97.3157 240.508 101.559 241.8 105.829 243.118C110.667 244.59 115.48 246.088 120.319 247.561C120.784 247.716 120.991 246.967 120.526 246.812C111.676 244.099 102.853 241.387 94.0037 238.674C91.9337 238.054 89.7861 237.098 87.6385 236.84C86.1377 236.659 84.9475 237.253 83.8866 238.235C82.4117 239.604 81.2991 240.87 79.1515 240.973C77.3661 241.077 75.6066 240.612 73.8212 240.896C70.147 241.464 69.0085 245.468 65.9035 246.993C65.4377 247.251 65.8259 247.923 66.2657 247.69Z" fill="#AEB3C2"/>
    <path d="M112.763 244.435C114.6 244.9 116.049 243.066 117.705 242.523C119.931 241.774 122.311 242.084 124.329 243.247C124.769 243.505 125.157 242.833 124.717 242.575C123.01 241.567 121.069 241.154 119.103 241.412C118.249 241.516 117.447 241.748 116.67 242.084C115.558 242.575 114.264 243.996 112.97 243.686C112.479 243.557 112.272 244.306 112.763 244.435Z" fill="#AEB3C2"/>
    <path d="M132.713 242.498C130.979 241.077 129.323 239.553 127.771 237.925C127.046 237.176 126.348 236.375 125.675 235.574C125.287 235.109 124.899 234.644 124.536 234.179C124.278 233.843 124.019 233.508 123.786 233.172C123.372 232.758 123.372 232.242 123.812 231.673C124.122 231.803 124.614 231.493 124.355 231.131C122.777 229.013 121.612 226.688 120.862 224.156C120.707 224.311 120.552 224.466 120.396 224.621C121.25 224.853 121.871 225.293 122.337 226.016C122.596 226.429 123.268 226.068 123.01 225.628C119.154 218.963 115.998 211.937 113.617 204.626C113.41 204.755 113.177 204.884 112.97 205.013C123.812 215.657 128.728 230.459 137.862 242.368C138.172 242.756 138.845 242.368 138.535 241.981C129.375 230.02 124.407 215.166 113.514 204.471C113.255 204.213 112.737 204.471 112.867 204.858C115.273 212.247 118.43 219.325 122.337 226.042C122.57 225.913 122.777 225.783 123.01 225.654C122.415 224.75 121.638 224.156 120.603 223.898C120.319 223.82 120.034 224.078 120.138 224.363C120.914 226.946 122.104 229.348 123.708 231.518C123.889 231.338 124.071 231.157 124.252 230.976C123.527 230.64 122.725 230.976 122.544 231.828C122.311 233.043 123.786 234.386 124.459 235.238C126.762 238.106 129.375 240.715 132.221 243.04C132.558 243.35 133.101 242.808 132.713 242.498Z" fill="#AEB3C2"/>
    <path d="M129.996 226.352C125.235 219.248 121.38 211.627 118.533 203.567C118.456 203.722 118.352 203.877 118.275 204.032C119.154 203.825 119.905 204.161 120.396 204.936C120.655 205.375 121.276 204.988 121.069 204.548C117.058 195.894 112.97 186.878 113.255 177.139C113.022 177.217 112.763 177.268 112.53 177.346C119.439 191.554 126.011 205.943 132.221 220.462C132.402 220.875 133.075 220.565 132.92 220.152C131.885 217.052 130.876 213.926 129.841 210.826C129.349 209.302 128.832 207.803 128.34 206.279C128.004 205.272 127.279 203.076 128.728 202.533C128.573 202.482 128.443 202.404 128.288 202.353C130.151 205.995 131.988 209.638 133.851 213.28C134.084 213.719 134.757 213.332 134.524 212.893C132.506 208.94 131.574 204.574 131.755 200.131C131.497 200.157 131.238 200.208 131.005 200.234C136.387 213.59 142.623 226.61 149.635 239.191C149.868 239.63 150.541 239.243 150.308 238.803C143.322 226.274 137.112 213.332 131.755 200.028C131.6 199.64 131.005 199.666 131.005 200.131C130.824 204.703 131.807 209.173 133.877 213.28C134.11 213.151 134.317 213.022 134.55 212.893C132.687 209.25 130.85 205.608 128.987 201.965C128.909 201.836 128.702 201.733 128.547 201.784C125.959 202.74 127.615 206.434 128.185 208.165C129.53 212.221 130.85 216.303 132.195 220.358C132.428 220.255 132.661 220.152 132.894 220.048C126.684 205.53 120.112 191.141 113.203 176.933C113.022 176.571 112.479 176.778 112.479 177.139C112.168 187.008 116.334 196.178 120.396 204.936C120.629 204.807 120.836 204.678 121.069 204.548C120.396 203.489 119.31 203.024 118.068 203.283C117.861 203.334 117.731 203.567 117.809 203.748C120.681 211.859 124.562 219.558 129.349 226.713C129.608 227.153 130.281 226.765 129.996 226.352Z" fill="#AEB3C2"/>
    <path d="M78.867 276.287C87.8198 271.973 97.2641 267.582 107.485 268.615C112.323 269.106 117.007 270.501 121.82 271.121C124.252 271.431 126.71 271.56 129.142 271.276C131.419 270.992 133.567 270.165 135.792 269.674C138.664 269.028 141.278 269.7 144.046 270.475C146.323 271.095 148.574 271.612 150.929 271.069C151.421 270.966 151.214 270.217 150.722 270.32C146.013 271.431 141.588 268.047 136.827 268.718C134.472 269.054 132.273 269.984 129.944 270.397C127.486 270.811 124.976 270.759 122.492 270.449C117.602 269.881 112.841 268.434 107.925 267.892C103.086 267.349 98.2991 267.969 93.6675 269.312C88.389 270.862 83.3951 273.239 78.4789 275.616C78.0131 275.822 78.4271 276.494 78.867 276.287Z" fill="#AEB3C2"/>
    <path d="M131.393 297.703C134.421 296.412 137.396 294.991 140.268 293.389C141.769 292.537 143.244 291.658 144.719 290.728C146.039 289.876 147.358 288.662 148.807 288.042C150.437 287.37 152.895 288.636 154.526 289.127C156.259 289.669 157.993 290.186 159.701 290.728C163.245 291.813 166.79 292.898 170.309 293.983C170.775 294.138 170.982 293.389 170.516 293.234C166.739 292.072 162.935 290.909 159.157 289.747C157.346 289.178 155.535 288.636 153.723 288.068C152.326 287.628 150.567 286.724 149.092 287.086C147.72 287.422 146.478 288.61 145.314 289.385C143.813 290.367 142.261 291.323 140.708 292.227C137.577 294.009 134.343 295.611 131.005 297.006C130.539 297.213 130.953 297.884 131.393 297.703Z" fill="#AEB3C2"/>
    <path d="M163.582 298.504C165.548 297.523 167.515 296.515 169.481 295.533C171.292 294.603 173.233 293.363 175.303 293.183C177.399 292.976 179.029 294.345 180.84 295.146C182.367 295.818 184.023 296.205 185.679 296.308C189.56 296.515 193.183 294.578 197.038 294.784C200.117 294.965 203.222 297.497 206.25 295.895C206.689 295.663 206.301 294.991 205.861 295.223C203.973 296.231 201.928 295.249 200.065 294.655C198.461 294.138 196.909 293.906 195.227 294.087C191.242 294.5 187.594 296.179 183.505 295.223C180.116 294.448 177.528 291.633 173.88 292.692C172.198 293.183 170.62 294.113 169.067 294.888C167.101 295.869 165.134 296.877 163.168 297.858C162.754 298.065 163.142 298.737 163.582 298.504Z" fill="#AEB3C2"/>
    <path d="M178.693 292.898C177.088 291.503 175.639 289.953 174.449 288.171C173.906 287.37 173.414 286.518 172.948 285.665C172.716 285.226 172.509 284.787 172.327 284.348C172.172 283.986 172.017 283.65 171.888 283.288C171.655 282.901 171.758 282.539 172.198 282.203C172.431 282.1 172.664 281.997 172.897 281.893C170.05 277.708 168.265 272.955 167.67 267.943C167.437 268.047 167.23 268.124 166.997 268.228C167.463 268.822 167.929 269.416 168.42 270.036C168.705 270.398 169.248 269.933 169.041 269.571C164.539 261.537 162.133 252.495 162.081 243.298C161.848 243.402 161.641 243.479 161.408 243.583C163.168 245.004 164.513 246.76 165.341 248.853C165.574 248.749 165.807 248.646 166.04 248.543C164.022 244.28 163.608 239.475 164.798 234.929C164.539 234.929 164.306 234.929 164.047 234.929C169.352 250.093 174.63 265.231 179.935 280.395C180.09 280.86 180.84 280.653 180.685 280.188C178.02 272.413 176.7 264.249 176.778 256.008C176.545 256.112 176.338 256.189 176.105 256.293C177.684 257.713 178.667 259.496 179.029 261.588C179.107 262.028 179.805 261.924 179.779 261.485C179.702 259.909 179.598 258.308 179.521 256.732C179.314 256.835 179.133 256.964 178.926 257.068C180.297 257.946 180.556 260.271 180.996 261.718C181.461 263.268 181.927 264.818 182.419 266.393C183.376 269.597 184.359 272.774 185.317 275.978C187.257 282.358 189.198 288.765 191.139 295.146C191.294 295.611 192.044 295.43 191.889 294.939C189.793 288.068 187.723 281.17 185.627 274.299C184.618 270.94 183.583 267.582 182.574 264.223C182.056 262.493 181.539 260.788 181.021 259.057C180.685 257.998 180.297 257.042 179.34 256.422C179.107 256.267 178.744 256.474 178.744 256.758C178.822 258.333 178.926 259.935 179.003 261.511C179.262 261.485 179.521 261.434 179.754 261.408C179.391 259.186 178.305 257.248 176.623 255.75C176.364 255.518 175.976 255.673 175.95 256.034C175.872 264.327 177.192 272.568 179.883 280.421C180.142 280.343 180.375 280.292 180.633 280.214C175.329 265.05 170.05 249.912 164.746 234.748C164.617 234.412 164.099 234.36 163.996 234.748C162.754 239.527 163.219 244.513 165.315 248.956C165.496 249.343 166.195 249.059 166.014 248.646C165.134 246.424 163.763 244.538 161.874 243.04C161.615 242.833 161.201 242.963 161.201 243.324C161.253 252.65 163.685 261.847 168.265 269.984C168.472 269.829 168.679 269.674 168.886 269.519C168.42 268.925 167.955 268.331 167.463 267.711C167.256 267.453 166.764 267.659 166.79 267.995C167.385 273.162 169.197 278.044 172.12 282.333C172.379 282.694 172.897 282.462 172.819 282.023C172.69 281.299 171.836 281.041 171.241 281.48C170.154 282.255 171.215 284.089 171.603 284.968C173.078 288.248 175.277 291.116 177.994 293.467C178.537 293.751 179.081 293.208 178.693 292.898Z" fill="#AEB3C2"/>
    <path d="M151.627 234.954C151.291 230.098 160.114 232.888 162.573 233.353C166.609 234.102 170.62 234.851 174.656 235.6C182.703 237.098 190.776 238.597 198.823 240.095C199.315 240.198 199.522 239.449 199.03 239.346C189.793 237.615 180.582 235.91 171.344 234.179C166.816 233.327 162.288 232.474 157.76 231.648C156.13 231.338 154.241 231.002 152.714 231.854C151.55 232.474 150.774 233.611 150.877 234.954C150.877 235.445 151.679 235.445 151.627 234.954Z" fill="#AEB3C2"/>
    <path d="M193.467 239.243C196.158 239.527 197.814 236.969 199.91 235.729C201.696 234.696 203.248 235.497 205.085 235.858C207.129 236.272 209.225 236.323 211.295 236.065C211.787 236.013 211.787 235.238 211.295 235.29C208.966 235.574 206.638 235.471 204.361 234.903C202.989 234.541 201.747 234.102 200.376 234.644C197.944 235.574 196.288 238.778 193.467 238.468C192.976 238.416 192.976 239.191 193.467 239.243Z" fill="#AEB3C2"/>
    <path d="M242.811 288.92C249.021 286.75 255.283 284.58 261.7 283.03C268.401 281.429 275.155 280.783 282.037 280.989C288.843 281.196 295.596 281.971 302.375 282.591C309.18 283.237 315.985 283.857 322.791 284.503C330.605 285.226 338.445 285.949 346.259 286.699C346.751 286.75 346.751 285.975 346.259 285.924C332.312 284.632 318.366 283.34 304.393 282.023C290.964 280.783 277.458 278.949 264.08 281.713C256.732 283.237 249.642 285.717 242.578 288.171C242.138 288.326 242.345 289.075 242.811 288.92Z" fill="#AEB3C2"/>
    <path d="M270.161 263.5C274.792 262.518 279.139 260.581 283.512 258.824C288.196 256.964 292.931 255.673 297.951 255.233C303.022 254.794 308.119 255.053 313.165 255.363C318.237 255.673 323.308 256.034 328.405 256.396C334.331 256.835 340.282 257.326 346.207 257.843C346.699 257.894 346.699 257.119 346.207 257.068C335.702 256.138 325.197 255.337 314.666 254.665C304.652 254.019 294.794 253.761 285.246 257.3C280.174 259.186 275.258 261.588 269.928 262.725C269.488 262.854 269.669 263.603 270.161 263.5Z" fill="#AEB3C2"/>
    <path d="M329.803 233.714C333.503 230.898 337.41 228.134 341.55 226.016C343.568 224.983 345.742 224.156 348.019 223.975C350.477 223.768 352.935 224.259 355.341 224.569C360.232 225.163 365.148 225.525 370.064 225.835C373.324 226.042 377.464 226.507 379.767 223.665C380.078 223.278 379.534 222.735 379.224 223.123C376.611 226.352 371.099 225.138 367.528 224.905C362.612 224.569 357.748 224.104 352.857 223.484C350.761 223.226 348.691 223.019 346.596 223.407C344.526 223.768 342.585 224.595 340.748 225.577C336.763 227.695 332.985 230.33 329.389 233.068C329.026 233.353 329.415 234.024 329.803 233.714Z" fill="#AEB3C2"/>
    <path d="M187.361 229.452C191.035 226.688 194.735 223.949 198.409 221.185C201.928 218.55 205.215 215.786 209.82 215.553C214.167 215.347 218.618 215.838 222.939 216.199C227.596 216.587 232.228 217.103 236.834 217.749C240.715 218.292 245.347 219.738 249.021 217.723C249.461 217.491 249.073 216.819 248.633 217.052C246.744 218.085 244.648 218.085 242.552 217.827C240.301 217.543 238.05 217.155 235.799 216.845C231.452 216.251 227.079 215.76 222.68 215.398C218.359 215.037 213.883 214.52 209.562 214.778C205.551 215.011 202.575 217.078 199.444 219.428C195.279 222.528 191.139 225.654 186.973 228.754C186.585 229.09 186.973 229.762 187.361 229.452Z" fill="#AEB3C2"/>
    <path d="M332.934 256.757C333.166 255.052 333.503 253.399 333.994 251.746C334.227 250.971 334.46 250.196 334.771 249.421C334.952 248.956 335.443 248.181 336.116 248.362C336.453 248.465 336.608 249.627 336.634 249.86C336.685 250.273 337.255 250.402 337.384 249.963C338.6 246.011 339.997 241.671 343.723 239.372C343.516 239.268 343.335 239.139 343.128 239.036C343.128 239.682 343.102 240.353 343.102 240.999C343.102 241.361 343.646 241.542 343.827 241.206C346.13 236.427 348.64 231.415 353.297 228.522C353.116 228.367 352.909 228.237 352.728 228.082C350.399 234.102 347.682 239.966 344.603 245.649C344.396 246.011 344.914 246.476 345.224 246.114C346.958 244.047 348.717 241.981 350.994 240.482C350.813 240.302 350.632 240.121 350.451 239.94C347.579 245.985 344.448 251.875 341.007 257.61C340.748 258.049 341.421 258.437 341.679 257.997C345.095 252.262 348.252 246.372 351.124 240.327C351.279 240.017 350.943 239.552 350.58 239.785C348.252 241.335 346.44 243.427 344.655 245.546C344.862 245.701 345.069 245.856 345.276 246.011C348.381 240.276 351.124 234.36 353.478 228.263C353.608 227.953 353.168 227.669 352.909 227.824C348.122 230.795 345.535 235.884 343.154 240.792C343.387 240.87 343.646 240.922 343.879 240.999C343.879 240.353 343.905 239.682 343.905 239.036C343.905 238.752 343.568 238.545 343.309 238.7C339.428 241.102 337.902 245.597 336.634 249.757C336.892 249.782 337.151 249.834 337.384 249.86C337.255 248.542 336.064 246.295 334.615 247.974C333.891 248.827 333.606 250.222 333.296 251.281C332.778 252.986 332.416 254.742 332.157 256.525C332.131 257.042 332.856 257.248 332.934 256.757Z" fill="#AEB3C2"/>
    <path d="M152.145 213.151C154.163 212.066 156.207 210.981 158.433 210.387C160.787 209.767 163.116 209.973 165.471 210.283C170.154 210.903 174.837 211.523 179.495 212.143C179.987 212.221 179.987 211.446 179.495 211.368C174.501 210.697 169.481 209.973 164.487 209.379C162.185 209.095 159.985 209.095 157.76 209.741C155.638 210.361 153.672 211.42 151.731 212.453C151.291 212.738 151.705 213.383 152.145 213.151Z" fill="#AEB3C2"/>
    <path d="M40.8307 124.207C42.5643 121.546 46.2903 122.941 48.5932 123.871C51.2583 124.956 53.9493 125.757 56.4333 123.845C57.7012 122.863 58.7362 121.675 60.3146 121.21C61.9447 120.693 63.7559 120.926 65.4119 121.313C68.5169 122.063 71.3891 123.587 74.6493 123.638C75.1409 123.638 75.1409 122.863 74.6493 122.863C70.8974 122.786 67.6372 120.745 63.9629 120.254C62.5398 120.073 61.0908 120.099 59.7194 120.59C58.3481 121.081 57.3648 122.088 56.2781 122.993C52.8626 125.834 49.5506 122.915 46.0057 122.14C43.8839 121.675 41.4517 121.83 40.1579 123.819C39.8992 124.233 40.5719 124.62 40.8307 124.207Z" fill="#AEB3C2"/>
    <path d="M309.542 37.9234C311.405 36.3476 314.019 36.6576 316.063 37.6651C317.615 38.4142 318.883 39.9384 320.695 40.0159C322.376 40.0676 323.774 38.9309 325.197 38.1817C326.154 37.6909 327.137 37.3551 328.224 37.5876C329.389 37.8201 330.398 38.4917 331.459 38.9567C334.952 40.4809 337.28 38.3626 340.23 36.6834C341.058 36.2184 341.938 35.8051 342.895 35.7276C344.111 35.6242 345.198 36.1667 346.285 36.6317C347.993 37.3551 349.286 37.6392 351.02 36.9417C352.805 36.2442 354.254 36.3476 356.04 36.9934C357.178 37.4067 358.265 37.9234 359.455 38.1817C361.241 38.5951 363.155 38.4917 364.501 37.1226C364.863 36.7609 364.294 36.2184 363.958 36.5801C362.224 38.3367 359.585 37.5101 357.592 36.7351C355.574 35.9601 353.504 35.1334 351.356 35.9342C350.011 36.4509 349.105 36.8126 347.656 36.3217C346.673 35.9859 345.767 35.4434 344.758 35.1592C343.232 34.6942 341.809 34.9526 340.411 35.6501C338.807 36.4509 337.41 37.7167 335.728 38.3884C333.503 39.2667 331.769 38.1042 329.751 37.2517C328.276 36.6317 326.879 36.5284 325.404 37.1742C323.618 37.9751 321.885 39.7317 319.789 38.9826C318.676 38.5951 317.797 37.6909 316.787 37.1226C315.934 36.6576 315.002 36.3217 314.045 36.1409C312.208 35.8051 310.422 36.1151 308.973 37.3292C308.611 37.7167 309.18 38.2592 309.542 37.9234Z" fill="#AEB3C2"/>
    <path d="M318.858 55.5675C319.349 55.5675 319.349 54.7925 318.858 54.7925C318.366 54.7925 318.366 55.5675 318.858 55.5675Z" fill="#AEB3C2"/>
    <path d="M324.033 58.3834C325.249 56.1875 328.121 57.2467 329.906 57.97C331.692 58.6934 333.296 59.1325 335.185 58.4867C336.737 57.9442 338.134 56.9109 339.739 56.5492C341.964 56.0325 343.232 57.9184 345.25 58.3575C348.407 59.055 351.589 55.5417 354.565 57.0142C355.393 57.4275 355.962 57.97 356.946 57.8925C357.851 57.8409 358.679 57.4017 359.559 57.195C362.017 56.6267 364.579 57.0659 366.778 58.28C367.218 58.5125 367.606 57.8409 367.166 57.6084C365.769 56.8334 364.268 56.3684 362.69 56.2134C361.888 56.1359 361.06 56.1617 360.258 56.2909C359.3 56.42 358.42 56.8334 357.489 57.0142C356.221 57.2467 355.678 56.6267 354.643 56.1875C354.125 55.9809 353.556 55.8775 353.013 55.9034C351.719 55.955 350.477 56.4975 349.287 56.9367C347.76 57.505 346.13 58.0475 344.577 57.2725C343.258 56.6267 342.223 55.645 340.67 55.645C337.462 55.6709 335.211 58.745 331.821 57.815C329.311 57.1175 325.275 54.6634 323.412 57.97C323.127 58.435 323.8 58.8225 324.033 58.3834Z" fill="#AEB3C2"/>
    <path d="M298.934 89.3059C300.771 87.8592 302.867 87.9367 304.885 88.8667C305.998 89.3834 307.188 89.8742 308.352 89.1767C309.025 88.7634 309.465 88.1176 310.267 87.8851C311.121 87.6267 312.027 87.8076 312.855 88.0142C314.33 88.3759 315.753 89.0217 317.279 89.1251C319.091 89.2542 320.747 88.4792 322.506 88.2984C324.395 88.1176 325.715 89.2542 327.474 89.5126C329.182 89.7451 330.501 88.3759 332.209 88.6342C334.279 88.9442 336.323 89.6417 338.367 90.1584C338.859 90.2876 339.066 89.5384 338.574 89.4092C336.427 88.8667 334.202 88.0401 332.002 87.8076C330.139 87.6009 328.794 89.1251 326.931 88.5567C325.197 88.0401 323.955 87.2909 322.092 87.5492C320.1 87.8334 318.288 88.6084 316.244 88.1692C314.666 87.8334 313.139 87.0842 311.509 86.9809C310.914 86.9551 310.293 87.0067 309.724 87.2392C308.999 87.5234 308.611 88.1176 307.938 88.5051C306.386 89.4092 304.29 87.4976 302.634 87.3684C301.056 87.2392 299.607 87.7817 298.365 88.7376C297.977 89.0734 298.546 89.6159 298.934 89.3059Z" fill="#AEB3C2"/>
    <path d="M150.592 32.9376C151.084 32.9376 151.084 32.1626 150.592 32.1626C150.101 32.1626 150.101 32.9376 150.592 32.9376Z" fill="#AEB3C2"/>
    <path d="M152.869 33.5317C153.335 31.2325 156.388 32.705 157.501 33.4025C158.769 34.2034 160.114 34.9267 161.667 34.4875C163.349 33.9967 164.487 32.55 166.35 32.4467C168.11 32.3692 169.818 33.17 171.474 33.6867C172.897 34.1259 174.397 34.4359 175.872 34.0742C177.606 33.6609 179.081 32.4467 180.84 32.1367C184.308 31.5425 187.438 34.3584 190.957 33.2734C191.423 33.1184 191.242 32.3692 190.75 32.5242C187.076 33.6867 183.583 30.4317 179.857 31.5942C177.942 32.1884 176.338 33.5317 174.242 33.4542C172.302 33.3767 170.542 32.4467 168.705 31.9817C167.256 31.62 165.781 31.5167 164.384 32.1625C163.582 32.5242 162.883 33.1184 162.081 33.5059C160.761 34.1259 159.649 33.7642 158.458 33.0925C157.165 32.3434 156.052 31.465 154.474 31.5942C153.361 31.6717 152.378 32.24 152.171 33.3767C152.041 33.8159 152.792 34.0225 152.869 33.5317Z" fill="#AEB3C2"/>
    <path d="M155.224 184.373C158.303 183.081 161.408 185.38 164.513 185.535C166.117 185.612 167.67 185.225 169.248 184.915C171.241 184.527 172.948 184.502 174.863 185.302C176.027 185.793 177.088 186.103 178.279 185.638C178.951 185.38 179.521 184.941 180.193 184.708C180.944 184.45 181.72 184.398 182.522 184.398C185.291 184.45 188.059 185.406 190.699 184.166C191.138 183.959 190.75 183.287 190.31 183.494C187.49 184.812 184.359 183.365 181.384 183.675C179.96 183.83 179.029 184.657 177.709 185.044C176.131 185.509 174.579 184.166 173.026 183.933C169.688 183.417 166.531 185.277 163.168 184.605C160.477 184.062 157.76 182.487 155.017 183.649C154.577 183.83 154.784 184.579 155.224 184.373Z" fill="#AEB3C2"/>
    <path d="M99.2823 146.32C101.54 146.32 103.371 144.493 103.371 142.238C103.371 139.984 101.54 138.157 99.2823 138.157C97.0245 138.157 95.1941 139.984 95.1941 142.238C95.1941 144.493 97.0245 146.32 99.2823 146.32Z" fill="#191F33"/>
    <path d="M337.255 118.265C338.841 118.265 340.127 116.981 340.127 115.398C340.127 113.814 338.841 112.53 337.255 112.53C335.669 112.53 334.383 113.814 334.383 115.398C334.383 116.981 335.669 118.265 337.255 118.265Z" fill="#191F33"/>
    <path d="M311.406 18.3675C312.577 18.3675 313.527 17.4191 313.527 16.2492C313.527 15.0793 312.577 14.1309 311.406 14.1309C310.234 14.1309 309.284 15.0793 309.284 16.2492C309.284 17.4191 310.234 18.3675 311.406 18.3675Z" fill="#191F33"/>
    <path d="M217.945 202.068C219.403 202.068 220.584 200.889 220.584 199.433C220.584 197.978 219.403 196.798 217.945 196.798C216.487 196.798 215.306 197.978 215.306 199.433C215.306 200.889 216.487 202.068 217.945 202.068Z" fill="#191F33"/>
    <path d="M96.2809 52.4158C97.9529 52.4158 99.3083 51.0626 99.3083 49.3933C99.3083 47.7241 97.9529 46.3708 96.2809 46.3708C94.6089 46.3708 93.2535 47.7241 93.2535 49.3933C93.2535 51.0626 94.6089 52.4158 96.2809 52.4158Z" fill="#0864ED"/>
    <path d="M200.661 158.462C201.618 158.462 202.394 157.687 202.394 156.731C202.394 155.775 201.618 155 200.661 155C199.703 155 198.927 155.775 198.927 156.731C198.927 157.687 199.703 158.462 200.661 158.462Z" fill="#0864ED"/>
    <path d="M364.294 173.187C365.752 173.187 366.933 172.007 366.933 170.552C366.933 169.096 365.752 167.917 364.294 167.917C362.836 167.917 361.655 169.096 361.655 170.552C361.655 172.007 362.836 173.187 364.294 173.187Z" fill="#0864ED"/>
    <path d="M76.6158 216.742C77.7019 216.742 78.5823 215.863 78.5823 214.779C78.5823 213.694 77.7019 212.815 76.6158 212.815C75.5297 212.815 74.6493 213.694 74.6493 214.779C74.6493 215.863 75.5297 216.742 76.6158 216.742Z" fill="#0864ED"/>
    <path d="M157.035 64.1701C154.784 68.7426 152.507 73.3151 150.256 77.8876C159.571 90.3651 168.886 102.817 178.201 115.294C180.607 111.652 182.988 107.932 185.394 104.186C191.061 95.2993 196.469 86.516 201.644 77.8101C199.884 73.341 198.099 68.846 196.339 64.3768C195.201 63.7826 194.062 63.2143 192.924 62.6201C181.901 62.646 170.878 62.6718 159.882 62.6976C158.898 63.2143 157.967 63.7051 157.035 64.1701Z" fill="white"/>
    <path d="M150.567 78.0943C152.533 73.7802 154.551 69.4918 156.621 65.2293C156.828 64.7902 156.181 64.3768 155.949 64.8418C153.879 69.1043 151.86 73.3927 149.894 77.7068C149.687 78.146 150.36 78.5593 150.567 78.0943Z" fill="#191F33"/>
    <path d="M150.049 78.5592C159.157 91.0367 168.446 103.359 177.916 115.578C178.227 115.966 178.77 115.423 178.46 115.036C169.041 102.868 159.804 90.5976 150.722 78.1717C150.437 77.7842 149.764 78.1717 150.049 78.5592Z" fill="#191F33"/>
    <path d="M156.803 64.7901C157.889 64.2217 158.95 63.6276 160.037 63.0592C160.477 62.8267 160.089 62.1551 159.649 62.3876C158.562 62.9559 157.501 63.5501 156.414 64.1184C155.949 64.3767 156.363 65.0226 156.803 64.7901Z" fill="#191F33"/>
    <path d="M160.684 63.1109C168.757 63.1109 176.856 63.1109 184.929 63.1109C185.42 63.1109 185.42 62.3359 184.929 62.3359C176.856 62.3359 168.757 62.3359 160.684 62.3359C160.192 62.3359 160.192 63.1109 160.684 63.1109Z" fill="#191F33"/>
    <path d="M202.006 77.7326C200.376 73.4184 198.694 69.1559 196.96 64.8676C196.779 64.4026 196.029 64.6092 196.21 65.0742C197.944 69.3367 199.626 73.6251 201.256 77.9392C201.437 78.4042 202.187 78.1976 202.006 77.7326Z" fill="#191F33"/>
    <path d="M201.152 78.12C193.571 90.52 185.834 102.843 177.942 115.062C177.658 115.475 178.331 115.862 178.615 115.449C186.507 103.23 194.244 90.9333 201.825 78.5075C202.084 78.0942 201.411 77.6808 201.152 78.12Z" fill="#191F33"/>
    <path d="M196.495 64.0667C195.589 63.4984 194.684 62.9042 193.778 62.3359C193.364 62.0775 192.976 62.7234 193.39 63.0075C194.295 63.5759 195.201 64.17 196.107 64.7384C196.547 65.0225 196.935 64.3509 196.495 64.0667Z" fill="#191F33"/>
    <path d="M192.898 62.2583C186.145 62.2583 179.391 62.2583 172.664 62.2583C172.172 62.2583 172.172 63.0333 172.664 63.0333C179.417 63.0333 186.171 63.0333 192.898 63.0333C193.39 63.0333 193.39 62.2583 192.898 62.2583Z" fill="#191F33"/>
    <path d="M150.877 78.4818C155.509 76.4926 160.14 74.5034 164.772 72.5143C165.238 72.3076 164.824 71.6618 164.384 71.8426C159.752 73.8318 155.121 75.8209 150.489 77.8101C150.049 78.0168 150.437 78.6884 150.877 78.4818Z" fill="#191F33"/>
    <path d="M156.932 64.5575C159.778 64.9967 162.573 65.6167 165.341 66.3917C165.833 66.5208 166.04 65.7717 165.548 65.6425C162.78 64.8417 159.985 64.2475 157.139 63.8083C156.647 63.7308 156.414 64.48 156.932 64.5575Z" fill="#191F33"/>
    <path d="M165.134 66.2625C165.755 68.2 166.299 70.1375 166.764 72.1267C166.868 72.6175 167.618 72.4109 167.515 71.92C167.049 69.9309 166.506 67.9934 165.885 66.0559C165.729 65.5909 164.979 65.7717 165.134 66.2625Z" fill="#191F33"/>
    <path d="M166.325 66.3402C173.259 66.3402 180.168 66.3402 187.102 66.3402C187.594 66.3402 187.594 65.5652 187.102 65.5652C180.168 65.5652 173.259 65.5652 166.325 65.5652C165.833 65.5652 165.833 66.3402 166.325 66.3402Z" fill="#191F33"/>
    <path d="M186.766 66.495C186.507 67.9158 186.248 69.3625 185.99 70.7833C185.912 71.2742 186.662 71.4808 186.74 70.99C186.999 69.5692 187.257 68.1225 187.516 66.7017C187.594 66.2108 186.843 66.0042 186.766 66.495Z" fill="#191F33"/>
    <path d="M167.178 72.1783C173.233 72.1783 179.288 72.1783 185.369 72.1783C185.86 72.1783 185.86 71.4033 185.369 71.4033C179.314 71.4033 173.259 71.4033 167.178 71.4033C166.687 71.4033 166.687 72.1783 167.178 72.1783Z" fill="#191F33"/>
    <path d="M187.852 66.34C190.673 65.7458 193.467 65.1517 196.288 64.5575C196.779 64.4542 196.572 63.705 196.081 63.8083C193.26 64.4025 190.466 64.9967 187.645 65.5908C187.154 65.6942 187.361 66.4433 187.852 66.34Z" fill="#191F33"/>
    <path d="M186.559 71.9459C189.172 72.3593 191.604 73.8318 193.985 74.9426C196.521 76.1309 199.03 77.3193 201.566 78.5076C202.006 78.7143 202.42 78.0426 201.954 77.8359C199.263 76.5701 196.598 75.3301 193.907 74.0643C191.63 72.9793 189.276 71.6101 186.766 71.1968C186.274 71.1193 186.067 71.8684 186.559 71.9459Z" fill="#191F33"/>
    <path d="M167.411 73.3667C170.775 87.2134 174.113 101.086 177.477 114.933C177.606 115.423 178.331 115.217 178.227 114.726C174.863 100.879 171.525 87.0067 168.162 73.1601C168.032 72.6692 167.282 72.8759 167.411 73.3667Z" fill="#191F33"/>
    <path d="M185.472 74.2968C182.315 87.6268 179.702 101.112 177.684 114.674C177.606 115.165 178.356 115.372 178.434 114.881C180.452 101.318 183.066 87.8593 186.222 74.5034C186.352 74.0126 185.601 73.8059 185.472 74.2968Z" fill="#191F33"/>
    <path d="M185.731 48.4377C186.895 45.4668 187.542 42.341 187.645 39.1377C187.671 38.6468 186.895 38.6468 186.869 39.1377C186.766 42.2635 186.119 45.3118 184.98 48.231C184.799 48.696 185.55 48.8768 185.731 48.4377Z" fill="#191F33"/>
    <path d="M191.035 48.9541C193.519 46.1383 196.314 43.6583 199.445 41.5658C199.859 41.2816 199.47 40.6099 199.056 40.8941C195.874 43.0124 193.002 45.5441 190.492 48.4116C190.155 48.7733 190.699 49.3158 191.035 48.9541Z" fill="#191F33"/>
    <path d="M196.132 53.7335C199.341 52.7777 202.653 52.416 205.991 52.6743C206.482 52.7002 206.482 51.9252 205.991 51.8993C202.575 51.641 199.212 52.0027 195.925 52.9843C195.46 53.1393 195.641 53.8885 196.132 53.7335Z" fill="#191F33"/>
    <path d="M141.614 35.6242C141.924 40.7392 139.052 45.6217 134.446 47.8434C134.188 47.9726 134.214 48.3601 134.446 48.5151C138.664 51.0467 140.605 55.6967 141.717 60.2692C141.847 60.7601 142.571 60.5534 142.468 60.0626C141.303 55.2834 139.233 50.4526 134.835 47.8434C134.835 48.0759 134.835 48.2826 134.835 48.5151C139.673 46.1642 142.726 40.9717 142.39 35.6242C142.364 35.1334 141.588 35.1334 141.614 35.6242Z" fill="#AEB3C2"/>
    <path d="M141.899 35.6242C141.562 40.9976 144.615 46.1901 149.454 48.5151C149.454 48.2826 149.454 48.0759 149.454 47.8434C145.029 50.4784 142.959 55.3092 141.795 60.1142C141.666 60.6051 142.416 60.8117 142.545 60.3209C143.658 55.7226 145.599 51.0467 149.842 48.5151C150.075 48.3859 150.101 47.9726 149.842 47.8434C145.236 45.6217 142.338 40.7392 142.649 35.6242C142.701 35.1334 141.924 35.1334 141.899 35.6242Z" fill="#AEB3C2"/>
    <path d="M267.884 229.555C268.79 229.168 270.032 228.599 271.455 227.799C273.835 226.481 275.026 225.809 275.75 224.75C276.682 223.355 276.319 222.606 277.535 221.211C277.717 220.979 278.57 220.074 279.683 219.584C281.598 218.783 283.383 219.739 286.359 220.798C289.102 221.779 291.249 222.244 295.544 223.2C297.252 223.588 299.322 223.975 302.324 224.905C303.178 225.164 303.85 225.396 304.316 225.551C304.368 226.094 304.394 227.489 303.488 228.754C303.074 229.323 302.505 229.788 301.599 230.201C299.503 231.183 297.511 231.002 295.829 230.924C292.207 230.769 293.707 231.286 285.169 231.441C283.306 231.467 281.779 231.467 280.718 231.467C279.398 232.371 278.079 233.301 276.733 234.257C274.456 235.91 272.283 237.564 270.213 239.191C269.437 235.988 268.66 232.759 267.884 229.555Z" fill="#191F33"/>
    <path d="M257.094 196.488C255.231 197.47 255.024 197.832 248.089 203.722C237.273 212.893 236.083 213.383 226.277 221.934C216.884 230.098 215.124 232.138 213.339 234.825C208.889 241.619 207.905 247.303 207.621 250.067C207.233 253.787 206.715 258.953 210.001 263.035C212.071 265.593 214.762 266.652 215.668 266.988C218.385 268.021 220.61 267.892 224.621 267.608C229.951 267.22 234.013 266.187 235.617 265.748C237.377 265.257 241.465 264.043 246.588 261.511C251.401 259.134 253.471 257.378 260.043 252.96C262.967 250.997 267.288 248.129 272.722 244.823C273.059 242.239 272.774 240.224 272.489 238.958C271.817 235.962 270.445 233.895 268.919 231.622C267.677 229.762 266.486 228.341 265.658 227.411C267.599 225.938 270.135 223.82 272.8 220.978C274.585 219.067 277.406 216.018 279.76 211.73C282.658 206.46 285.556 201.138 283.693 197.47C280.769 191.709 266.849 191.451 257.094 196.488Z" fill="white"/>
    <path opacity="0.18" d="M280.278 199.304C278.803 202.714 276.371 207.545 272.49 212.712C266.849 220.178 261.156 224.311 252.566 230.433C228.269 247.742 221.749 251.694 222.473 253.348C223.457 255.595 237.144 251.565 239.137 250.971C253.679 246.683 264.391 240.069 271.092 235.238C269.385 232.629 267.677 230.02 265.969 227.437C268.065 225.938 270.963 223.562 273.68 220.023C275.181 218.085 277.458 215.088 278.932 210.568C280.433 206.073 280.485 202.068 280.278 199.304Z" fill="#AEB3C2"/>
    <path d="M256.99 196.463C247.779 203.308 238.8 210.49 230.158 218.008C226.018 221.598 221.878 225.189 217.997 229.038C214.555 232.448 211.347 236.22 209.406 240.715C207.388 245.365 206.819 250.738 207.31 255.776C207.724 259.935 209.251 264.12 213.055 266.29C217.039 268.538 222.059 268.305 226.458 267.84C231.866 267.298 237.196 265.98 242.242 263.939C253.497 259.367 262.321 250.816 272.955 245.158C273.395 244.926 273.007 244.254 272.567 244.487C263.692 249.214 256.137 256.034 247.236 260.762C242.578 263.242 237.558 265.05 232.383 266.161C227.596 267.168 222.214 267.943 217.35 267.013C215.073 266.574 212.874 265.644 211.243 263.939C209.665 262.26 208.811 260.064 208.371 257.817C207.414 252.934 207.854 247.406 209.458 242.704C211.062 238.003 214.193 234.05 217.609 230.537C221.154 226.894 225.035 223.536 228.838 220.203C238.024 212.143 247.546 204.445 257.379 197.16C257.767 196.85 257.404 196.178 256.99 196.463Z" fill="#191F33"/>
    <path d="M231.633 249.421C240.12 246.14 247.805 241.232 255.102 235.859C258.698 233.224 262.243 230.485 265.762 227.747C269.229 225.034 272.541 222.167 275.232 218.679C275.543 218.292 274.87 217.904 274.56 218.292C271.817 221.857 268.376 224.724 264.857 227.489C261.389 230.201 257.896 232.888 254.325 235.497C247.184 240.715 239.706 245.52 231.426 248.698C230.96 248.853 231.167 249.602 231.633 249.421Z" fill="#191F33"/>
    <path d="M265.374 227.669C270.368 231.854 273.007 238.338 272.309 244.823C272.257 245.313 273.033 245.313 273.085 244.823C273.783 238.158 271.041 231.441 265.917 227.127C265.555 226.791 265.012 227.333 265.374 227.669Z" fill="#191F33"/>
    <path d="M272.257 237.615C273.732 237.176 275.025 235.936 276.267 235.058C277.82 233.973 279.346 232.888 280.899 231.803C281.313 231.518 280.925 230.847 280.511 231.131C279.114 232.113 277.69 233.12 276.293 234.102C274.999 235.006 273.576 236.401 272.05 236.866C271.558 236.995 271.765 237.744 272.257 237.615Z" fill="#191F33"/>
    <path d="M267.987 229.917C270.911 228.703 273.602 227.049 276.035 225.009C276.423 224.673 275.853 224.13 275.491 224.466C273.188 226.429 270.601 228.005 267.806 229.168C267.341 229.374 267.547 230.124 267.987 229.917Z" fill="#191F33"/>
    <path d="M275.75 224.672C276.241 224.672 276.241 223.897 275.75 223.897C275.258 223.897 275.258 224.672 275.75 224.672Z" fill="#191F33"/>
    <path d="M276.681 223.743C277.121 222.709 277.587 221.573 278.415 220.772C279.528 219.687 280.873 219.842 282.296 220.152C284.936 220.746 287.523 221.573 290.111 222.322C292.517 222.993 294.923 223.588 297.407 223.872C298.856 224.027 300.072 224.208 301.366 224.853C302.324 225.318 303.152 225.783 304.212 225.887C304.704 225.938 304.704 225.163 304.212 225.112C302.789 224.983 301.677 224.001 300.331 223.562C298.986 223.123 297.485 223.148 296.088 222.916C293.034 222.425 290.059 221.495 287.109 220.617C285.66 220.203 284.211 219.79 282.736 219.454C281.649 219.222 280.511 218.938 279.424 219.273C277.535 219.842 276.63 221.857 275.931 223.536C275.75 224.001 276.5 224.208 276.681 223.743Z" fill="#191F33"/>
    <path d="M280.795 232.371C286.333 231.544 291.818 231.415 297.407 231.312C299.348 231.286 301.418 231.053 302.97 229.788C304.29 228.703 305.04 227.127 304.678 225.448C304.575 224.957 303.824 225.163 303.928 225.654C304.419 228.005 302.298 229.736 300.202 230.253C298.054 230.769 295.725 230.511 293.526 230.563C289.179 230.64 284.884 231.002 280.588 231.648C280.097 231.699 280.33 232.448 280.795 232.371Z" fill="#191F33"/>
    <path d="M300.435 227.23C302.349 225.861 304.29 224.492 306.205 223.123C306.334 222.244 306.748 220.333 308.327 218.705C308.792 218.214 309.879 217.078 311.509 216.768C313.217 216.432 314.537 217.207 316.011 217.879C318.392 218.964 320.695 219.377 325.249 220.255C328.845 220.927 330.657 221.263 333.244 221.134C336.763 220.927 339.273 219.997 340.774 221.469C340.929 221.624 341.576 222.322 341.524 223.174C341.447 224.259 340.282 224.957 339.351 225.499C335.288 227.824 333.011 228.496 333.011 228.496C327.267 230.175 324.369 231.028 321.885 231.234C319.867 231.389 316.995 231.467 313.527 230.924C312.518 234.386 309.465 236.608 306.593 236.427C302.893 236.194 299.477 232.035 300.435 227.23Z" fill="#191F33"/>
    <path d="M263.278 204.393C263.847 202.663 264.908 200.467 266.9 199.743C268.194 199.278 269.384 199.588 269.772 199.692C272.179 200.286 277.121 199.433 286.979 197.754C291.87 196.928 298.054 195.713 305.169 193.905C305.195 195.223 305.169 196.953 305.092 198.968C304.911 203.489 304.445 206.899 304.341 207.7C303.902 210.903 303.125 216.225 300.771 222.683C300.176 224.337 299.58 225.706 299.166 226.636C300.176 227.101 301.262 227.721 302.323 228.599C306.696 232.087 307.964 237.021 308.378 239.113C307.757 239.863 306.825 240.973 305.635 242.239C300.822 247.354 296.372 250.222 287.885 255.466C282.658 258.695 278.829 261.046 272.696 264.663C265.244 269.054 259.215 272.464 251.712 274.608C249.849 275.151 246.899 275.874 243.173 275.487C241.362 275.306 238.101 274.97 234.971 272.697C230.96 269.803 229.692 265.567 229.175 263.707C228.01 259.548 228.45 255.647 229.537 251.591C230.287 248.749 233.004 239.32 242.448 228.703C244.337 226.584 249.719 221.805 260.432 212.247C263.019 209.948 265.141 208.062 266.564 206.822C265.477 205.995 264.39 205.194 263.278 204.393Z" fill="white"/>
    <path opacity="0.18" d="M298.468 197.238C297.873 199.511 296.916 202.792 295.467 206.641C282.245 241.619 252.695 256.732 255.102 260.503C256.861 263.293 273.732 256.344 285.893 249.033C295.001 243.557 301.78 237.693 306.308 233.275C305.584 232.216 304.471 230.769 302.789 229.4C301.159 228.083 299.607 227.282 298.442 226.791C299.244 225.628 300.305 223.872 301.211 221.624C301.806 220.178 302.324 218.628 302.996 215.476C304.083 210.49 304.523 206.538 304.652 205.298C304.963 202.327 305.247 198.478 305.196 193.931C302.945 195.016 300.719 196.127 298.468 197.238Z" fill="#AEB3C2"/>
    <path d="M304.808 193.905C304.833 198.788 304.523 203.67 303.85 208.527C303.229 212.893 302.453 217.388 300.849 221.521C299.115 225.99 296.139 229.245 292.543 232.319C288.869 235.445 285.169 238.519 281.468 241.593C277.225 245.133 272.956 248.646 268.712 252.185C268.324 252.495 268.867 253.038 269.255 252.728C277.044 246.269 284.832 239.837 292.569 233.301C295.984 230.408 299.089 227.411 300.952 223.252C302.763 219.222 303.643 214.804 304.342 210.464C305.222 204.988 305.636 199.459 305.584 193.905C305.584 193.388 304.808 193.388 304.808 193.905Z" fill="#191F33"/>
    <path d="M263.718 205.117C264.779 205.685 265.84 206.254 266.927 206.822C267.366 207.054 267.755 206.383 267.315 206.15C266.254 205.582 265.193 205.014 264.106 204.445C263.666 204.213 263.278 204.884 263.718 205.117Z" fill="#191F33"/>
    <path d="M266.926 206.512C257.715 214.003 248.038 221.418 240.353 230.511C233.729 238.338 228.269 248.258 228.295 258.773C228.295 263.397 229.563 268.228 232.979 271.508C236.394 274.815 241.336 276.107 245.994 275.874C251.686 275.59 257.094 273.343 262.166 270.863C267.599 268.202 272.748 265.05 277.923 261.924C288.584 255.466 300.486 249.447 308.482 239.604C308.792 239.217 308.249 238.674 307.938 239.062C301.237 247.328 291.818 252.624 282.84 258.049C277.897 261.046 273.007 264.094 267.961 266.936C263.019 269.726 257.87 272.387 252.411 273.963C247.287 275.435 241.569 275.745 236.73 273.188C232.073 270.759 229.692 266.058 229.201 260.943C228.243 250.609 233.444 240.328 239.732 232.474C247.572 222.683 257.819 214.882 267.496 207.028C267.858 206.744 267.315 206.202 266.926 206.512Z" fill="#191F33"/>
    <path d="M298.986 226.946C303.85 229.271 307.24 233.869 308.042 239.191C308.119 239.682 308.87 239.475 308.792 238.984C307.99 233.482 304.419 228.651 299.4 226.274C298.934 226.068 298.546 226.739 298.986 226.946Z" fill="#191F33"/>
    <path d="M300.538 227.618C301.573 227.204 302.401 226.507 303.281 225.835C304.316 225.034 305.377 224.259 306.412 223.459C306.8 223.149 306.412 222.477 306.024 222.787C305.092 223.484 304.161 224.182 303.229 224.905C302.324 225.603 301.418 226.455 300.331 226.869C299.891 227.049 300.072 227.799 300.538 227.618Z" fill="#191F33"/>
    <path d="M306.8 223.148C307.317 221.624 307.938 220.126 308.766 218.731C309.905 216.819 311.613 217.026 313.527 217.517C316.503 218.266 319.349 219.403 322.351 220.074C328.173 221.366 334.15 221.805 340.101 221.418C340.593 221.392 340.593 220.617 340.101 220.643C333.089 221.108 326.025 220.384 319.246 218.473C317.616 218.008 316.037 217.413 314.407 216.948C313.165 216.587 311.69 216.173 310.396 216.432C309.232 216.664 308.559 217.543 307.99 218.524C307.188 219.919 306.567 221.418 306.049 222.942C305.894 223.407 306.645 223.613 306.8 223.148Z" fill="#191F33"/>
    <path d="M307.913 235.626C309.853 234.153 311.768 232.681 313.709 231.209C314.097 230.899 313.709 230.227 313.32 230.537C311.38 232.009 309.465 233.482 307.524 234.954C307.136 235.264 307.524 235.936 307.913 235.626Z" fill="#191F33"/>
    <path d="M313.683 231.028C319.996 232.397 326.439 231.363 332.416 229.09C335.133 228.057 338.238 226.894 340.567 225.138C342.197 223.924 342.43 221.599 340.282 220.772C339.816 220.591 339.609 221.34 340.075 221.521C341.24 221.96 341.369 223.226 340.567 224.104C340.179 224.544 339.635 224.828 339.118 225.138C338.057 225.732 336.97 226.274 335.883 226.791C333.581 227.876 331.2 228.806 328.742 229.529C323.903 230.924 318.832 231.389 313.864 230.304C313.398 230.175 313.191 230.924 313.683 231.028Z" fill="#191F33"/>
    <path d="M246.252 119.453C250.185 116.198 256.059 112.272 263.899 109.947C267.573 108.862 272.179 107.518 278.286 108.035C287.652 108.836 294.095 113.434 296.372 115.113C299.943 117.723 302.375 120.487 303.876 122.424C304.161 140.533 304.549 158.668 305.04 176.778C305.196 182.358 305.351 187.963 305.532 193.543C301.858 195.817 296.709 198.374 290.188 199.873C274.922 203.36 262.217 198.71 257.068 196.463C257.042 191.89 256.758 185.018 255.36 176.778C253.083 163.241 249.538 157.79 247.313 146.139C246.201 140.12 245.14 131.078 246.252 119.453Z" fill="#191F33"/>
    <path d="M293.034 123.922C291.766 125.317 291.533 126.893 291.611 132.938C291.662 139.293 291.999 143.633 292.206 148.671C292.361 152.313 292.49 155.207 292.413 158.978C292.335 163.732 292.025 167.632 291.74 170.242C289.204 173.083 286.953 175.305 285.271 176.907C281.493 180.497 277.379 184.372 271.299 188.015C268.892 189.436 266.822 190.469 265.425 191.115C264.157 190.908 262.734 190.598 261.182 190.211C257.507 189.281 255.981 188.454 253.212 188.454C252.384 188.454 249.771 188.454 249.512 189.384C249.279 190.159 250.728 191.373 251.867 191.967C252.927 192.51 253.393 192.355 254.454 192.846C255.644 193.414 256.421 194.241 256.886 194.861C256.395 195.558 255.644 196.617 254.816 197.987C253.859 199.588 253.652 200.208 252.539 202.12C251.375 204.135 250.78 205.142 250.262 205.659C249.46 206.408 248.969 206.563 245.372 208.165C241.801 209.767 241.18 210.128 241.18 210.567C241.18 211.007 241.879 211.11 244.647 212.298C246.899 213.254 247.106 213.461 248.27 213.797C249.719 214.21 250.599 214.468 251.66 214.236C253.341 213.9 254.428 212.634 254.894 211.962C255.127 212.169 255.696 212.608 256.446 212.634C257.042 212.634 257.533 212.402 257.921 212.092C259.551 210.929 260.354 208.785 261.958 206.382C262.242 205.969 263.252 204.445 264.882 202.74C265.891 201.655 266.822 200.854 267.495 200.312C268.401 200.105 269.746 199.795 271.35 199.33C277.586 197.547 282.089 195.403 285.866 193.595C288.066 192.536 290.55 191.141 295.492 188.377C299.787 185.974 302.012 184.631 303.979 181.996C304.186 181.712 305.247 180.291 306.178 178.198C306.463 177.552 307.472 175.253 308.015 171.223C308.274 169.441 308.274 168.459 308.3 162.879C308.352 155.775 308.352 156.627 308.352 155.904C308.326 145.493 307.782 146.423 307.601 136.865C307.575 135.961 307.55 133.507 306.799 130.407C305.997 127.048 304.988 125.55 304.419 124.801C303.694 123.845 302.814 122.708 301.314 122.062C298.571 120.848 294.923 121.83 293.034 123.922Z" fill="white"/>
    <path opacity="0.25" d="M301.34 122.036C301.961 124.077 302.712 127.022 303.229 130.587C303.85 134.901 304.083 139.655 302.686 152.081C301.521 162.466 300.952 167.658 299.451 172.515C297.304 179.438 295.751 184.476 291.016 188.454C287.963 191.011 284.625 192.2 277.923 194.551C273.007 196.281 268.789 197.315 265.891 197.961C263.821 200.751 260.742 204.29 256.369 207.648C252.954 210.283 249.668 212.091 246.951 213.331C247.339 213.59 248.943 214.623 251.117 214.339C253.653 214.003 255.024 212.195 255.257 211.859C255.748 212.221 256.473 212.608 257.275 212.479C258.931 212.221 259.811 209.87 260.251 208.811C261.208 206.615 263.123 203.592 267.418 200.286C270.264 199.536 274.12 198.4 278.596 196.695C284.832 194.292 289.024 191.967 293.526 189.461C300.745 185.431 302.375 183.778 303.565 182.176C305.739 179.257 306.645 176.261 307.033 174.943C307.731 172.592 307.861 169.957 308.119 164.816C308.301 160.993 308.301 158.048 308.301 155.826C308.301 152.003 308.223 149.161 308.145 146.707C308.042 143.142 307.835 138.957 307.317 133.946C306.929 130.303 306.645 128.856 305.817 127.229C304.549 124.646 302.66 122.992 301.34 122.036Z" fill="#AEB3C2"/>
    <path d="M292.646 123.819C291.301 127.177 291.146 130.794 291.223 134.385C291.301 138.337 291.508 142.264 291.689 146.216C292.051 154.225 292.31 162.259 291.353 170.242C291.301 170.732 292.077 170.732 292.129 170.242C293.06 162.44 292.853 154.561 292.491 146.733C292.31 142.858 292.103 138.983 291.999 135.082C291.896 131.337 291.974 127.565 293.397 124.026C293.578 123.561 292.827 123.354 292.646 123.819Z" fill="#191F33"/>
    <path d="M292.853 169.57C290.473 170.887 288.558 172.799 286.721 174.788C284.729 176.932 282.736 179.025 280.511 180.936C275.957 184.889 270.834 188.144 265.348 190.676C264.882 190.882 265.296 191.554 265.736 191.347C271.015 188.919 275.957 185.819 280.382 182.073C282.581 180.239 284.599 178.224 286.54 176.131C288.558 173.936 290.576 171.714 293.216 170.267C293.681 169.983 293.293 169.311 292.853 169.57Z" fill="#191F33"/>
    <path d="M265.529 190.727C262.683 190.133 259.811 189.513 256.965 188.867C255.541 188.557 254.093 188.17 252.644 187.911C251.738 187.756 250.78 187.679 249.978 188.196C248.736 188.996 248.736 190.469 249.849 191.347C250.651 191.993 251.686 192.277 252.644 192.587C254.196 193.078 255.516 193.698 256.525 195.016C256.835 195.403 257.508 195.016 257.198 194.628C256.292 193.466 255.205 192.639 253.808 192.148C252.851 191.812 251.79 191.606 250.91 191.115C250.289 190.779 249.487 190.262 249.952 189.332C250.392 188.454 251.505 188.531 252.307 188.661C254.455 188.971 256.602 189.591 258.75 190.081C260.949 190.572 263.149 191.037 265.348 191.502C265.814 191.58 266.021 190.831 265.529 190.727Z" fill="#191F33"/>
    <path d="M255.904 195.145C254.765 197.237 253.601 199.304 252.462 201.396C251.893 202.404 251.401 203.489 250.729 204.471C250.03 205.478 249.099 205.995 248.012 206.511C245.968 207.467 243.768 208.242 241.802 209.353C240.922 209.87 240.353 210.8 241.103 211.704C242.035 212.815 243.872 212.376 245.114 212.169C246.822 211.885 248.452 211.316 250.004 210.593C253.239 209.043 255.981 206.615 257.948 203.618C258.233 203.205 257.56 202.817 257.275 203.231C255.541 205.917 253.135 208.087 250.315 209.586C248.969 210.283 247.52 210.851 246.045 211.187C245.217 211.394 244.338 211.575 243.458 211.601C242.656 211.652 242.449 211.756 242.061 210.955C241.569 210.49 241.621 210.18 242.19 210.025C242.371 209.947 242.526 209.87 242.707 209.792C244.363 209.017 246.045 208.268 247.701 207.493C248.995 206.899 250.263 206.382 251.143 205.22C252.178 203.851 252.902 202.223 253.73 200.725C254.688 198.994 255.645 197.263 256.576 195.558C256.809 195.093 256.137 194.706 255.904 195.145Z" fill="#191F33"/>
    <path d="M267.729 200.802C274.637 198.865 281.339 196.282 287.756 193.078C290.939 191.477 294.044 189.746 297.071 187.834C299.788 186.129 302.66 184.398 304.601 181.789C304.885 181.376 304.212 180.988 303.928 181.402C301.91 184.14 298.753 185.922 295.907 187.679C293.009 189.462 290.007 191.115 286.954 192.639C280.718 195.713 274.223 198.193 267.522 200.079C267.056 200.182 267.263 200.932 267.729 200.802Z" fill="#191F33"/>
    <path d="M293.164 124.517C295.311 120.306 300.823 121.262 303.54 124.258C306.8 127.875 306.955 133.171 307.317 137.769C308.094 147.818 308.249 157.945 307.628 167.994C307.317 172.877 306.593 178.043 303.333 181.918C303.022 182.306 303.566 182.848 303.876 182.461C306.8 178.947 307.809 174.504 308.223 170.061C308.766 164.377 308.766 158.617 308.715 152.907C308.663 146.94 308.378 140.947 307.835 135.005C307.421 130.536 306.619 125.602 302.919 122.631C299.762 120.099 294.483 120.177 292.465 124.129C292.258 124.568 292.931 124.956 293.164 124.517Z" fill="#191F33"/>
    <path d="M244.415 212.608C246.304 213.461 248.581 214.752 250.729 214.752C252.799 214.727 254.325 213.022 255.723 211.73C259.733 208.01 263.744 204.29 267.754 200.596C268.117 200.26 267.573 199.717 267.211 200.053C263.821 203.205 260.432 206.331 257.042 209.482C255.542 210.852 253.989 212.815 252.1 213.667C249.875 214.675 246.822 212.867 244.829 211.962C244.364 211.73 243.975 212.402 244.415 212.608Z" fill="#191F33"/>
    <path d="M254.946 212.066C255.8 213.667 257.689 213.022 258.646 211.911C260.535 209.689 262.01 207.002 263.615 204.6C263.899 204.187 263.226 203.799 262.942 204.212C261.933 205.711 260.924 207.209 259.914 208.707C259.345 209.534 256.835 214.003 255.619 211.678C255.386 211.239 254.713 211.627 254.946 212.066Z" fill="#191F33"/>
    <path d="M248.943 210.8C249.72 211.213 250.677 211.626 251.531 211.213C251.971 210.981 252.152 210.619 252.359 210.206C252.721 209.508 253.083 208.966 253.756 208.526C254.17 208.242 253.782 207.571 253.368 207.855C252.747 208.268 252.229 208.785 251.867 209.456C251.608 209.947 251.453 210.541 250.78 210.593C250.289 210.645 249.745 210.335 249.331 210.128C248.917 209.921 248.503 210.567 248.943 210.8Z" fill="#191F33"/>
    <path d="M243.639 63.1885C242.733 65.0226 241.828 68.0968 241.543 69.1043C241.129 70.551 240.198 73.9351 239.68 78.4301C239.395 80.9101 239.085 83.6226 239.344 87.2135C239.473 88.9185 239.654 91.6051 240.663 94.9376C241.336 97.211 242.319 100.492 244.984 103.85C247.313 106.769 249.978 108.603 252.1 109.714C253.446 109.74 255.076 109.663 256.887 109.327C260.147 108.707 262.683 107.493 264.391 106.511C264.624 107.828 264.934 109.223 265.322 110.67C266.124 113.667 267.108 116.302 268.091 118.575C269.152 118.394 270.42 118.084 271.765 117.464C276.034 115.475 278.079 111.807 278.803 110.283C278.415 108.784 278.104 107.157 277.82 105.478C276.837 99.2001 277.095 93.5943 277.716 89.0476C278.26 89.2285 279.139 89.461 280.226 89.4093C282.348 89.2801 283.797 88.1176 284.521 87.4976C285.142 86.981 287.963 84.4751 287.859 80.7551C287.833 79.8768 287.782 77.7326 286.255 76.5701C284.832 75.511 282.917 75.8985 281.52 76.1826C279.916 76.5185 278.725 77.1901 278.001 77.6551C278.544 75.8726 279.683 71.3001 278.001 65.9785C277.639 64.8418 275.232 57.6085 268.143 54.4826C258.517 50.1943 246.951 56.5493 243.639 63.1885Z" fill="white"/>
    <path opacity="0.24" d="M272.878 63.3434C273.085 65.7459 273.24 69.2334 272.878 73.3667C271.765 85.8959 266.797 94.6017 265.503 96.7717C263.537 100.078 260.173 104.883 254.791 109.611C256.395 109.404 258.233 109.043 260.199 108.345C265.607 106.433 269.229 103.153 271.196 101.008C271.351 103.876 271.843 107.363 273.007 111.187C273.525 112.814 274.094 114.313 274.689 115.656C276.06 113.873 277.406 112.091 278.777 110.283C278.493 108.603 278.234 106.821 278.053 104.987C277.458 99.4326 277.458 94.3176 277.768 89.7709C278.933 89.7967 280.614 89.6934 282.4 88.9959C290.214 85.8959 294.665 73.5734 290.447 66.8567C290.266 66.5726 289.334 65.1259 287.42 63.8342C281.494 59.8559 273.965 62.8784 272.878 63.3434Z" fill="#AEB3C2"/>
    <path d="M241.75 68.3292C241.233 66.5467 240.508 63.1367 241.259 58.9517C241.491 57.66 242.294 53.5009 245.14 50.22C249.306 45.4409 254.532 46.345 261.312 43.9167C265.607 42.3925 271.506 39.1892 277.484 31.6459C276.94 34.4359 276.397 37.2517 275.853 40.0417C276.785 40.3 279.916 40.9717 283.124 39.3959C288.455 36.7867 288.92 30.4834 288.946 30.1992C289.593 31.6459 290.757 34.8492 290.24 38.9309C289.878 41.7209 288.869 43.8134 288.144 45.0792C288.455 45.415 290.111 47.12 292.025 46.8617C294.354 46.5517 296.528 43.3742 295.907 39.2667C296.424 40.7909 297.045 43.2967 296.89 46.3709C296.683 50.1167 295.441 52.9325 294.613 54.4567C294.82 54.6375 296.139 55.8259 298.002 55.5934C299.632 55.3867 301.03 54.1984 301.573 52.5192C301.444 54.25 301.133 56.7559 300.124 59.6234C298.753 63.4984 297.614 63.8084 297.045 66.5726C296.139 70.9126 298.468 72.3851 297.847 76.2601C297.33 79.515 295.208 81.5559 292.517 84.165C287.627 88.8925 282.012 91.45 277.302 92.8709C277.509 91.4242 277.742 89.9775 277.949 88.5309C278.544 88.8925 279.579 89.3834 280.873 89.3317C283.512 89.2284 285.168 86.8775 286.048 85.6117C287.057 84.1909 288.739 81.7625 287.834 79.1534C287.083 77.035 285.091 76.1567 284.91 76.0792C282.581 75.0975 279.579 75.9759 277.639 78.3525C276.552 74.09 275.491 69.8534 274.404 65.5909C270.73 63.2659 267.082 60.9667 263.408 58.6417C261.596 58.3059 256.654 57.6342 251.117 60.0884C245.528 62.5684 242.682 66.7792 241.75 68.3292Z" fill="#0864ED"/>
    <path d="M241.361 68.226C239.162 76.441 237.842 85.1726 239.861 93.5685C241.517 100.388 245.708 108.164 252.85 110.386C253.316 110.541 253.523 109.792 253.057 109.637C245.89 107.415 241.879 99.3293 240.404 92.5093C238.67 84.501 239.99 76.2343 242.086 68.4326C242.241 67.9676 241.491 67.761 241.361 68.226Z" fill="#191F33"/>
    <path d="M253.42 110.257C265.348 109.043 275.31 100.44 278.104 88.7634C278.208 88.2726 277.483 88.0659 277.354 88.5568C274.637 99.8459 265.038 108.293 253.42 109.482C252.928 109.533 252.902 110.308 253.42 110.257Z" fill="#191F33"/>
    <path d="M277.432 88.97C282.762 92.225 287.963 85.405 288.299 80.6258C288.48 78.0941 287.316 76.1566 284.806 75.4333C282.477 74.7616 279.942 75.4591 278.286 77.2158C277.949 77.5775 278.493 78.12 278.829 77.7583C280.2 76.2858 282.27 75.64 284.263 76.0791C285.298 76.3116 286.436 76.88 287.031 77.81C287.678 78.8175 287.601 80.2125 287.445 81.3233C286.824 85.3275 282.374 91.0625 277.82 88.2725C277.406 88.04 276.992 88.7116 277.432 88.97Z" fill="#191F33"/>
    <path d="M277.38 88.9184C276.371 96.0742 276.733 103.333 278.441 110.36C278.57 110.851 279.321 110.644 279.191 110.153C277.509 103.256 277.147 96.1258 278.13 89.125C278.182 88.6342 277.432 88.4275 277.38 88.9184Z" fill="#191F33"/>
    <path d="M264.003 106.614C264.805 110.799 266.047 114.855 267.755 118.782C267.962 119.247 268.634 118.833 268.427 118.394C266.745 114.545 265.529 110.541 264.753 106.408C264.65 105.917 263.925 106.123 264.003 106.614Z" fill="#191F33"/>
    <path d="M268.298 118.885C273.292 118.084 277.509 114.648 279.398 109.972C279.579 109.507 278.829 109.301 278.648 109.766C276.862 114.209 272.8 117.387 268.091 118.136C267.599 118.213 267.806 118.962 268.298 118.885Z" fill="#191F33"/>
    <path d="M264.624 107.518C265.684 107.57 266.409 106.847 267.211 106.227C268.272 105.4 269.281 104.522 270.213 103.592C271.946 101.861 273.343 99.8717 274.249 97.5984C274.43 97.1334 273.68 96.9268 273.499 97.3917C272.697 99.4067 271.455 101.189 269.954 102.739C269.281 103.463 268.557 104.108 267.806 104.754C266.978 105.452 265.788 106.795 264.624 106.743C264.132 106.718 264.132 107.493 264.624 107.518Z" fill="#191F33"/>
    <path d="M264.675 107.105C266.875 105.684 268.919 104.057 270.834 102.274C271.196 101.938 270.653 101.37 270.29 101.732C268.427 103.488 266.435 105.064 264.287 106.459C263.847 106.692 264.261 107.363 264.675 107.105Z" fill="#191F33"/>
    <path d="M249.461 69.7241C248.012 76.3116 247.184 83.0024 247.003 89.7449C247.003 90.1324 247.52 90.2616 247.727 89.9516C248.736 88.3499 249.745 86.7224 250.755 85.1208C251.013 84.7074 250.341 84.2941 250.082 84.7333C249.073 86.3349 248.064 87.9624 247.054 89.5641C247.287 89.6416 247.546 89.6933 247.779 89.7708C247.96 83.1058 248.788 76.4666 250.211 69.9566C250.315 69.4399 249.564 69.2333 249.461 69.7241Z" fill="#191F33"/>
    <path d="M250.496 99.4584C249.875 98.2959 249.461 97.0559 249.357 95.7384C249.28 94.8084 249.487 91.0367 251.246 92.535C252.178 93.3359 252.048 95.0925 252.074 96.255C252.074 96.7975 252.074 97.3659 252.022 97.9084C251.997 98.2959 251.945 98.6834 251.867 99.045C251.194 99.51 250.677 99.4842 250.341 98.9934C250.004 98.6317 249.435 99.1742 249.797 99.5359C250.91 100.673 252.359 100.724 252.669 98.9417C252.902 97.6759 252.902 96.3325 252.799 95.0667C252.721 94.0592 252.721 92.6125 251.971 91.8375C250.858 90.7009 249.28 91.76 248.84 92.9742C248.038 95.1442 248.814 97.8825 249.849 99.8459C250.056 100.285 250.729 99.8975 250.496 99.4584Z" fill="#191F33"/>
    <path d="M255.852 76.2083C256.628 79.8508 261.415 80.135 262.838 76.7767C263.019 76.3117 262.269 76.105 262.088 76.57C260.924 79.3083 257.198 78.7917 256.602 76.0017C256.499 75.5367 255.749 75.7175 255.852 76.2083Z" fill="#191F33"/>
    <path d="M254.325 67.2441C255.309 65.0483 257.844 63.9891 260.173 64.4799C262.58 64.9966 264.417 66.8566 265.607 68.8974C265.866 69.3366 266.538 68.9491 266.28 68.5099C264.908 66.1591 262.735 64.0666 259.94 63.6533C257.43 63.2916 254.739 64.4799 253.653 66.8308C253.446 67.3216 254.118 67.7091 254.325 67.2441Z" fill="#191F33"/>
    <path d="M239.163 68.0967C239.861 66.65 241.077 65.0742 242.863 65.1C244.571 65.1258 245.813 66.6242 246.666 67.9417C246.925 68.355 247.598 67.9675 247.339 67.5542C246.356 65.9783 244.881 64.3508 242.863 64.325C240.793 64.2992 239.344 66.0042 238.516 67.7092C238.283 68.1483 238.956 68.5358 239.163 68.0967Z" fill="#191F33"/>
    <path d="M243.743 79.7991C244.2 79.7991 244.571 78.0989 244.571 76.0016C244.571 73.9043 244.2 72.2041 243.743 72.2041C243.285 72.2041 242.915 73.9043 242.915 76.0016C242.915 78.0989 243.285 79.7991 243.743 79.7991Z" fill="#191F33"/>
    <path d="M246.122 120.668C246.045 121.623 245.941 122.941 245.889 124.465C245.657 129.683 245.864 133.636 245.941 134.695C246.148 138.131 246.614 142.626 247.701 147.844C246.666 149.033 245.113 150.789 243.121 152.856C239.343 156.808 237.402 158.823 234.297 160.916C230.83 163.241 228.424 163.964 227.13 164.3C225.5 164.688 223.947 165.049 222.059 164.636C218.979 163.938 217.142 161.665 216.47 160.787C214.762 158.617 214.374 156.498 213.675 152.365C213.158 149.343 213.054 147.043 212.899 142.6C212.821 140.482 212.718 137.898 212.769 134.437C212.821 130.536 213.028 125.912 213.597 120.745C213.856 118.42 214.218 115.553 214.788 112.298C214.348 111.678 213.882 111.058 213.39 110.412C212.873 109.74 212.381 109.094 211.864 108.448C210.544 109.559 209.25 110.696 207.931 111.807C207.594 111.936 206.999 112.143 206.275 112.065C204.903 111.936 204.101 110.98 203.817 110.67C202.549 109.223 202.73 107.389 202.782 107.028C204.567 105.09 206.352 103.178 208.164 101.241C208.19 100.13 208.345 98.6835 208.785 97.0818C209.121 95.8935 209.535 94.9118 209.923 94.0851C210.26 93.4135 210.725 92.6643 211.32 91.9151C212.381 90.5201 213.52 89.5385 214.451 88.8668C213.701 89.2026 213.52 89.2026 213.468 89.151C213.339 88.9443 214.555 87.4201 216.263 87.2651C217.22 87.1618 217.97 87.5235 218.488 87.756C219.29 88.1435 219.833 88.6343 220.17 88.996C221.774 87.6268 223.378 86.2576 224.982 84.9143C225.552 85.2501 226.121 85.6376 226.69 86.0251C228.01 86.9293 229.2 87.8335 230.261 88.7118C229.873 89.2026 229.381 89.7451 228.76 90.2876C227.725 91.1918 226.69 91.7343 225.888 92.096C226.38 92.251 227.259 92.6126 227.699 93.4651C228.139 94.2918 227.958 95.196 227.699 96.3326C227.518 97.1076 227.285 97.7276 227.104 98.141C227.208 99.226 227.259 100.698 226.949 102.352C226.457 105.064 225.319 107.079 224.543 108.242C224.517 109.249 224.491 110.825 224.543 112.763C224.75 120.745 225.914 125.421 226.664 131.311C227.104 134.669 227.544 139.655 227.415 145.933C228.01 145.545 228.864 144.925 229.821 144.124C232.253 142.083 233.806 140.043 235.85 137.046C237.868 134.127 239.188 131.957 240.973 129.063C242.086 127.178 243.871 124.31 246.122 120.668Z" fill="white"/>
    <path opacity="0.24" d="M222.602 97.0818C222.059 98.2701 221.516 99.4843 220.972 100.724C219.394 104.444 218.1 108.009 217.039 111.419C216.806 116.793 216.677 121.288 216.573 124.543C216.444 129.477 216.755 135.367 217.324 147.147C217.557 152.003 217.764 154.948 220.041 157.093C222.421 159.314 225.733 159.366 227.596 159.366C237.532 159.34 244.958 150.893 247.002 148.438C244.234 153.14 241.077 156.214 238.929 158.023C236.497 160.063 233.366 162.621 228.502 163.887C224.388 164.972 222.525 164.739 222.033 164.636C218.488 163.783 216.522 160.838 215.823 159.831C214.141 157.325 213.598 154.716 213.287 149.11C212.977 143.349 213.313 141.825 213.417 133.894C213.494 126.325 213.21 124.181 213.779 118.937C214.115 115.863 214.529 113.331 214.866 111.626C213.857 110.567 212.847 109.508 211.838 108.474C210.984 109.223 210.105 109.947 209.225 110.696C208.656 111.187 208.061 111.678 207.491 112.143C206.974 112.194 206.223 112.168 205.421 111.833C203.351 110.954 202.058 108.397 202.704 107.518C203.118 106.924 204.205 107.389 205.706 107.389C208.293 107.415 210.027 106.098 213.468 103.618C215.901 101.835 218.695 99.846 222.602 97.0818Z" fill="#AEB3C2"/>
    <path d="M245.787 120.461C239.809 128.702 235.385 138.157 227.829 145.183C227.467 145.519 228.01 146.062 228.373 145.726C235.98 138.647 240.43 129.141 246.459 120.848C246.77 120.461 246.097 120.073 245.787 120.461Z" fill="#191F33"/>
    <path d="M223.534 165.23C233.781 164.558 241.129 155.982 247.287 148.697C247.598 148.309 247.054 147.767 246.744 148.154C240.767 155.284 233.522 163.809 223.56 164.481C223.042 164.481 223.042 165.256 223.534 165.23Z" fill="#191F33"/>
    <path d="M218.669 92.4575C218.721 94.4983 220.067 96.255 222.033 96.8233C222.525 96.9525 222.732 96.2033 222.24 96.0741C220.61 95.6091 219.497 94.1366 219.446 92.4575C219.42 91.9666 218.644 91.9666 218.669 92.4575Z" fill="#191F33"/>
    <path d="M219.472 92.225C219.73 89.9775 223.741 91.605 224.828 92.1733C225.889 92.7158 226.95 93.2583 227.182 94.55C227.364 95.5316 227.053 96.565 226.794 97.5208C226.665 98.0116 227.415 98.2183 227.545 97.7275C227.907 96.4358 228.295 94.9633 227.752 93.6975C227.234 92.4058 225.811 91.8116 224.647 91.2433C223.456 90.675 222.163 90.2616 220.817 90.4166C220.274 90.4941 219.575 90.6233 219.135 90.985C218.67 91.3466 218.773 91.605 218.695 92.2508C218.644 92.7158 219.42 92.7158 219.472 92.225Z" fill="#191F33"/>
    <path d="M226.536 97.3658C226.458 99.3291 226.898 101.241 226.432 103.204C225.992 105.012 225.112 106.692 224.233 108.319C224 108.758 224.673 109.146 224.905 108.707C225.811 107.002 226.717 105.271 227.182 103.411C227.674 101.396 227.234 99.4066 227.312 97.3658C227.338 96.8491 226.561 96.8491 226.536 97.3658Z" fill="#191F33"/>
    <path d="M224.233 108.345C223.637 121.959 227.545 135.289 226.924 148.904C226.898 149.394 227.674 149.394 227.7 148.904C228.321 135.289 224.414 121.959 225.009 108.345C225.035 107.854 224.258 107.854 224.233 108.345Z" fill="#191F33"/>
    <path d="M211.528 108.629C212.304 109.714 213.132 110.747 214.064 111.703C214.4 112.065 214.943 111.522 214.607 111.161C213.727 110.231 212.925 109.275 212.201 108.242C211.89 107.828 211.217 108.216 211.528 108.629Z" fill="#191F33"/>
    <path d="M214.504 111.497C213.029 119.893 212.304 128.418 212.33 136.943C212.356 141.179 212.563 145.442 212.977 149.653C213.314 153.243 213.728 157.015 215.616 160.167C217.324 163.034 220.326 165.204 223.741 165.127C224.233 165.101 224.233 164.326 223.741 164.352C218.954 164.481 215.875 160.218 214.763 156.033C213.521 151.435 213.417 146.423 213.236 141.696C212.848 131.673 213.546 121.598 215.28 111.729C215.332 111.213 214.581 111.006 214.504 111.497Z" fill="#191F33"/>
    <path d="M209.613 99.8975C207.181 101.938 204.826 104.082 202.601 106.33C202.239 106.692 202.808 107.234 203.144 106.872C205.395 104.625 207.724 102.481 210.156 100.44C210.545 100.13 210.001 99.5875 209.613 99.8975Z" fill="#191F33"/>
    <path d="M202.368 107.028C201.98 110.024 204.257 112.556 207.284 112.53C207.776 112.53 207.776 111.755 207.284 111.755C204.671 111.781 202.808 109.585 203.144 107.028C203.222 106.537 202.446 106.537 202.368 107.028Z" fill="#191F33"/>
    <path d="M203.092 106.847C205.809 106.924 207.698 109.353 207.129 111.988C207.025 112.478 207.776 112.685 207.879 112.194C208.578 109.017 206.352 106.175 203.092 106.072C202.601 106.072 202.601 106.847 203.092 106.847Z" fill="#191F33"/>
    <path d="M208.19 112.065C211.14 109.378 214.141 106.717 217.013 103.953C218.333 102.687 219.601 101.396 220.791 100.001C221.438 99.2516 223.068 97.7791 223.094 96.7458C223.094 96.6166 223.017 96.4616 222.913 96.41C222.861 96.3841 222.81 96.3583 222.784 96.3583C222.628 96.2808 222.421 96.2808 222.318 96.41C222.292 96.4358 222.266 96.4616 222.24 96.5133C221.93 96.9008 222.473 97.4433 222.784 97.0558C222.81 97.03 222.835 97.0041 222.861 96.9525C222.706 96.9783 222.551 97.0041 222.396 97.0041C222.344 96.7716 222.266 96.7716 222.163 97.03C222.033 97.2108 221.904 97.3916 221.749 97.5725C221.438 97.96 221.154 98.3475 220.817 98.735C220.3 99.3808 219.73 100.001 219.187 100.621C218.048 101.861 216.858 103.023 215.642 104.16C213.003 106.64 210.312 109.042 207.647 111.497C207.259 111.858 207.828 112.401 208.19 112.065Z" fill="#191F33"/>
    <path d="M208.527 101.344C208.708 100.104 208.889 98.8642 209.07 97.6242C209.199 96.6942 209.303 95.6609 209.82 94.8342C211.011 92.9225 212.692 94.2917 213.598 95.5834C213.986 96.1259 214.348 96.72 214.737 97.2625C214.944 97.5725 215.953 98.6834 215.823 99.0709C215.953 98.9675 216.082 98.89 216.186 98.7867C216.134 98.7867 216.108 98.7867 216.056 98.7867C215.565 98.7609 215.565 99.5359 216.056 99.5617C216.108 99.5617 216.134 99.5617 216.186 99.5617C216.367 99.5617 216.522 99.4325 216.548 99.2775C216.729 98.6317 216.289 98.2442 215.953 97.7275C215.306 96.7717 214.685 95.79 214.012 94.86C213.313 93.9042 212.408 92.9742 211.114 93.1034C209.872 93.2325 209.122 94.1884 208.734 95.2992C208.087 97.1334 208.035 99.2259 207.75 101.138C207.699 101.628 208.449 101.835 208.527 101.344Z" fill="#191F33"/>
    <path d="M209.743 98.425C210.441 99.7941 211.606 101.189 213.262 101.292C214.633 101.396 215.927 100.621 216.289 99.2775C216.419 98.7866 215.668 98.58 215.539 99.0708C215.202 100.311 213.831 100.776 212.692 100.388C211.606 100.001 210.907 99.045 210.415 98.0633C210.183 97.5983 209.51 97.9858 209.743 98.425Z" fill="#191F33"/>
    <path d="M210.7 93.3876C210.829 92.1217 212.278 91.7859 213.262 92.1217C214.297 92.4576 215.099 93.3876 215.823 94.1367C216.392 94.7309 217.505 95.5576 217.66 96.3842C217.867 97.4951 216.47 98.2442 215.539 98.5284C215.073 98.6576 215.254 99.4067 215.746 99.2776C216.884 98.9417 218.54 97.9342 218.721 96.5909C218.799 96.0484 218.463 95.7642 218.1 95.3767C217.376 94.6017 216.677 93.8526 215.927 93.1034C214.918 92.0701 213.624 90.9592 212.071 91.2176C210.907 91.3984 210.053 92.1734 209.924 93.3617C209.872 93.8784 210.648 93.8784 210.7 93.3876Z" fill="#191F33"/>
    <path d="M212.097 91.4758C212.459 91.0625 212.641 90.52 212.977 90.1067C213.805 89.0733 215.099 90.0292 215.953 90.6492C217.609 91.8117 219.368 93.93 217.867 95.945C217.583 96.3583 218.255 96.7458 218.54 96.3325C220.144 94.1625 218.566 91.6567 216.729 90.2617C215.875 89.6158 214.581 88.4533 213.417 88.7892C212.382 89.0733 212.201 90.2617 211.554 90.9592C211.217 91.295 211.761 91.8375 212.097 91.4758Z" fill="#191F33"/>
    <path d="M214.711 89.125C215.616 88.0142 216.807 86.8517 218.204 88.0142C219.135 88.7634 219.73 89.8225 220.067 90.9334C220.222 91.3984 220.947 91.2175 220.817 90.7267C220.377 89.2284 219.368 87.4975 217.867 86.8775C216.341 86.2575 215.073 87.4717 214.167 88.5825C213.857 88.9442 214.4 89.5125 214.711 89.125Z" fill="#191F33"/>
    <path d="M220.429 89.2284C222.033 87.8592 223.638 86.49 225.242 85.1467C225.63 84.8109 225.061 84.2684 224.698 84.6042C223.094 85.9734 221.49 87.3425 219.886 88.6859C219.497 89.0217 220.067 89.5642 220.429 89.2284Z" fill="#191F33"/>
    <path d="M226.147 92.5351C227.674 91.4243 229.149 90.236 230.52 88.9443C230.883 88.6085 230.339 88.066 229.977 88.4018C228.631 89.6418 227.234 90.8043 225.759 91.8635C225.345 92.1476 225.733 92.8193 226.147 92.5351Z" fill="#191F33"/>
    <path d="M237.765 90.5975C246.397 90.5975 253.394 83.6117 253.394 74.9942C253.394 66.3767 246.397 59.3909 237.765 59.3909C229.134 59.3909 222.137 66.3767 222.137 74.9942C222.137 83.6117 229.134 90.5975 237.765 90.5975Z" stroke="#191F33" stroke-width="0.775" stroke-miterlimit="10"/>
    <path d="M228.295 76.9059C234.039 73.2376 239.913 69.7759 245.916 66.5209C246.356 66.2884 245.968 65.6167 245.528 65.8492C239.525 69.0784 233.651 72.5401 227.907 76.2342C227.493 76.5184 227.881 77.1901 228.295 76.9059Z" fill="#191F33"/>
    <path d="M228.942 83.6743C233.677 80.2126 238.464 76.8801 243.354 73.6251C243.768 73.3409 243.38 72.6693 242.966 72.9534C238.102 76.2084 233.289 79.5668 228.554 83.0026C228.14 83.2868 228.528 83.9584 228.942 83.6743Z" fill="#191F33"/>
</svg>
