<svg width="17" height="16" viewBox="0 0 17 16" fill="none" xmlns="http://www.w3.org/2000/svg">
    <g clip-path="url(#clip0_32_8389)">
        <path d="M16.4961 16V15.9993H16.5001V10.1313C16.5001 7.26065 15.8821 5.04932 12.5261 5.04932C10.9128 5.04932 9.83009 5.93465 9.38809 6.77399H9.34142V5.31732H6.15942V15.9993H9.47276V10.71C9.47276 9.31732 9.73676 7.97065 11.4614 7.97065C13.1608 7.97065 13.1861 9.55999 13.1861 10.7993V16H16.4961Z" fill="white"/>
        <path d="M0.763672 5.31799H4.08101V16H0.763672V5.31799Z" fill="white"/>
        <path d="M2.42133 0C1.36067 0 0.5 0.860667 0.5 1.92133C0.5 2.982 1.36067 3.86067 2.42133 3.86067C3.482 3.86067 4.34267 2.982 4.34267 1.92133C4.342 0.860667 3.48133 0 2.42133 0V0Z" fill="white"/>
    </g>
    <defs>
        <clipPath id="clip0_32_8389">
            <rect width="16" height="16" fill="white" transform="translate(0.5)"/>
        </clipPath>
    </defs>
</svg>
