<svg width="16" height="16" viewBox="0 0 16 16" fill="none" xmlns="http://www.w3.org/2000/svg">
    <g clip-path="url(#clip0_3387_1453)">
        <path d="M14.4913 10.9927C14.3505 11.1521 14.1775 11.2798 13.9836 11.3673C13.7897 11.4547 13.5795 11.5 13.3668 11.5H9.99963V12.5C9.99888 13.1628 9.73525 13.7983 9.26657 14.2669C8.79789 14.7356 8.16244 14.9992 7.49963 15C7.40678 15 7.31575 14.9742 7.23676 14.9253C7.15778 14.8765 7.09395 14.8067 7.05243 14.7236L4.69061 10H1.99963C1.73451 9.9997 1.48033 9.89424 1.29286 9.70677C1.10539 9.5193 0.999937 9.26512 0.999634 9V3.5C0.999937 3.23488 1.10539 2.9807 1.29286 2.79323C1.48033 2.60576 1.73451 2.5003 1.99963 2.5H12.6168C12.9823 2.50052 13.335 2.63423 13.609 2.87609C13.883 3.11795 14.0594 3.45139 14.1053 3.81396L14.8553 9.81396C14.8816 10.025 14.8628 10.2393 14.8 10.4425C14.7373 10.6457 14.6321 10.8333 14.4913 10.9927ZM1.99963 9H4.49963V3.5H1.99963V9Z" fill="#0864ED"/>
    </g>
    <defs>
        <clipPath id="clip0_3387_1453">
            <rect width="16" height="16" fill="white" transform="matrix(1 0 0 -1 0 16)"/>
        </clipPath>
    </defs>
</svg>
