<svg width="16" height="16" viewBox="0 0 16 16" fill="none" xmlns="http://www.w3.org/2000/svg">
    <g clip-path="url(#clip0_3387_114)">
        <path d="M14.4913 5.00726C14.3505 4.84786 14.1775 4.7202 13.9836 4.63274C13.7897 4.54529 13.5795 4.50004 13.3668 4.5H9.99963V3.5C9.99888 2.83719 9.73525 2.20174 9.26657 1.73306C8.79789 1.26439 8.16244 1.00075 7.49963 1C7.40678 0.999993 7.31575 1.02585 7.23676 1.07467C7.15778 1.12349 7.09395 1.19334 7.05243 1.2764L4.69061 6H1.99963C1.73451 6.0003 1.48033 6.10576 1.29286 6.29323C1.10539 6.4807 0.999937 6.73488 0.999634 7V12.5C0.999937 12.7651 1.10539 13.0193 1.29286 13.2068C1.48033 13.3942 1.73451 13.4997 1.99963 13.5H12.6168C12.9823 13.4995 13.335 13.3658 13.609 13.1239C13.883 12.882 14.0594 12.5486 14.1053 12.186L14.8553 6.18604C14.8816 5.97498 14.8628 5.76075 14.8 5.55753C14.7373 5.35431 14.6321 5.16674 14.4913 5.00726ZM1.99963 7H4.49963V12.5H1.99963V7Z" fill="#0864ED"/>
    </g>
    <defs>
        <clipPath id="clip0_3387_114">
            <rect width="16" height="16" fill="white"/>
        </clipPath>
    </defs>
</svg>
