<svg width="207" height="68" viewBox="0 0 207 68" fill="none" xmlns="http://www.w3.org/2000/svg">
    <g clip-path="url(#clip0_32_17685)">
        <path d="M56.9055 12.6458H14.7533C13.6358 12.647 12.5643 13.0915 11.7741 13.8818C10.9839 14.672 10.5394 15.7434 10.5381 16.861V48.4751C10.5381 49.034 10.316 49.5701 9.92079 49.9654C9.52554 50.3606 8.98946 50.5827 8.43049 50.5827C7.87152 50.5827 7.33544 50.3606 6.94018 49.9654C6.54493 49.5701 6.32288 49.034 6.32288 48.4751V23.1838C6.32288 22.6248 6.10083 22.0887 5.70558 21.6935C5.31032 21.2982 4.77425 21.0762 4.21527 21.0762C3.6563 21.0762 3.12022 21.2982 2.72497 21.6935C2.32972 22.0887 2.10767 22.6248 2.10767 23.1838V48.5031C2.11696 50.1746 2.78698 51.7745 3.97153 52.9538C5.15608 54.1331 6.75899 54.796 8.43049 54.7979H54.7978C56.4742 54.796 58.0813 54.1292 59.2666 52.9439C60.452 51.7585 61.1187 50.1514 61.1207 48.4751V16.861C61.1194 15.7434 60.6749 14.672 59.8846 13.8818C59.0944 13.0915 58.023 12.647 56.9055 12.6458ZM46.3674 40.0446H25.2913C24.7324 40.0446 24.1963 39.8226 23.801 39.4273C23.4058 39.0321 23.1837 38.496 23.1837 37.937C23.1837 37.3781 23.4058 36.842 23.801 36.4467C24.1963 36.0515 24.7324 35.8294 25.2913 35.8294H46.3674C46.9264 35.8294 47.4625 36.0515 47.8577 36.4467C48.253 36.842 48.475 37.3781 48.475 37.937C48.475 38.496 48.253 39.0321 47.8577 39.4273C47.4625 39.8226 46.9264 40.0446 46.3674 40.0446ZM46.3674 31.6142H25.2913C24.7324 31.6142 24.1963 31.3922 23.801 30.9969C23.4058 30.6017 23.1837 30.0656 23.1837 29.5066C23.1837 28.9476 23.4058 28.4116 23.801 28.0163C24.1963 27.6211 24.7324 27.399 25.2913 27.399H46.3674C46.9264 27.399 47.4625 27.6211 47.8577 28.0163C48.253 28.4116 48.475 28.9476 48.475 29.5066C48.475 30.0656 48.253 30.6017 47.8577 30.9969C47.4625 31.3922 46.9264 31.6142 46.3674 31.6142Z" fill="#0864ED"/>
    </g>
    <path d="M77.5978 48V18.5701H88.0879C90.3776 18.5701 92.2744 18.9869 93.7785 19.8203C95.2825 20.6538 96.4082 21.7938 97.1554 23.2404C97.9027 24.6774 98.2763 26.2964 98.2763 28.0975C98.2763 29.9081 97.8979 31.5367 97.1411 32.9833C96.3938 34.4203 95.2634 35.5603 93.7497 36.4034C92.2457 37.2368 90.3536 37.6536 88.0736 37.6536H80.8598V33.8886H87.6712C89.1178 33.8886 90.2913 33.6395 91.1919 33.1414C92.0924 32.6336 92.7534 31.9439 93.1749 31.0721C93.5965 30.2003 93.8072 29.2088 93.8072 28.0975C93.8072 26.9862 93.5965 25.9995 93.1749 25.1373C92.7534 24.275 92.0876 23.5997 91.1775 23.1111C90.277 22.6225 89.0891 22.3782 87.6137 22.3782H82.0381V48H77.5978ZM108.52 48.4886C107.121 48.4886 105.857 48.2299 104.726 47.7126C103.596 47.1857 102.7 46.4241 102.039 45.4278C101.387 44.4314 101.062 43.21 101.062 41.7634C101.062 40.518 101.301 39.4929 101.78 38.6882C102.259 37.8835 102.906 37.2464 103.72 36.777C104.534 36.3076 105.445 35.9531 106.45 35.7136C107.456 35.4741 108.481 35.2921 109.526 35.1675C110.848 35.0143 111.921 34.8897 112.745 34.7939C113.568 34.6885 114.167 34.5209 114.541 34.291C114.914 34.0611 115.101 33.6874 115.101 33.1701V33.0695C115.101 31.8145 114.747 30.8422 114.038 30.1524C113.339 29.4626 112.294 29.1178 110.905 29.1178C109.459 29.1178 108.319 29.4387 107.485 30.0805C106.661 30.7128 106.091 31.417 105.775 32.1929L101.737 31.2733C102.216 29.9321 102.915 28.8495 103.835 28.0256C104.764 27.1922 105.833 26.5886 107.04 26.215C108.247 25.8318 109.516 25.6402 110.848 25.6402C111.729 25.6402 112.663 25.7456 113.65 25.9563C114.646 26.1575 115.575 26.5311 116.438 27.0772C117.309 27.6233 118.023 28.404 118.579 29.4195C119.134 30.4254 119.412 31.7331 119.412 33.3426V48H115.216V44.9823H115.044C114.766 45.5379 114.349 46.084 113.794 46.6205C113.238 47.157 112.524 47.6024 111.652 47.9569C110.781 48.3114 109.736 48.4886 108.52 48.4886ZM109.454 45.0398C110.642 45.0398 111.657 44.8051 112.5 44.3356C113.353 43.8662 114 43.2531 114.44 42.4963C114.89 41.7299 115.116 40.9108 115.116 40.039V37.1937C114.962 37.347 114.665 37.4907 114.225 37.6248C113.794 37.7494 113.3 37.8595 112.745 37.9553C112.189 38.0416 111.648 38.123 111.121 38.1996C110.594 38.2667 110.153 38.3242 109.799 38.3721C108.965 38.4774 108.204 38.6547 107.514 38.9038C106.834 39.1528 106.288 39.5121 105.876 39.9815C105.473 40.4414 105.272 41.0545 105.272 41.8209C105.272 42.8843 105.665 43.689 106.45 44.235C107.236 44.7715 108.237 45.0398 109.454 45.0398ZM124.292 56.2771V25.9276H128.488V29.5057H128.847C129.096 29.0459 129.456 28.5142 129.925 27.9107C130.395 27.3071 131.046 26.7802 131.879 26.33C132.713 25.8701 133.815 25.6402 135.185 25.6402C136.966 25.6402 138.557 26.0905 139.955 26.991C141.354 27.8915 142.451 29.1896 143.246 30.8853C144.051 32.5809 144.453 34.6215 144.453 37.0069C144.453 39.3923 144.056 41.4377 143.261 43.1429C142.465 44.8386 141.373 46.1463 139.984 47.0659C138.595 47.976 137.01 48.4311 135.228 48.4311C133.886 48.4311 132.79 48.206 131.937 47.7557C131.094 47.3054 130.433 46.7785 129.954 46.175C129.475 45.5715 129.106 45.035 128.847 44.5656H128.589V56.2771H124.292ZM128.503 36.9638C128.503 38.5158 128.728 39.8761 129.178 41.0449C129.628 42.2137 130.28 43.1286 131.132 43.7896C131.985 44.441 133.029 44.7667 134.265 44.7667C135.549 44.7667 136.622 44.4266 137.484 43.7465C138.346 43.0567 138.997 42.1226 139.438 40.9443C139.888 39.766 140.114 38.4391 140.114 36.9638C140.114 35.5076 139.893 34.2 139.452 33.0408C139.021 31.8816 138.37 30.9667 137.498 30.2961C136.636 29.6255 135.558 29.2902 134.265 29.2902C133.019 29.2902 131.966 29.6111 131.103 30.253C130.251 30.8949 129.604 31.7906 129.164 32.9402C128.723 34.0898 128.503 35.431 128.503 36.9638ZM154.848 48.4886C153.449 48.4886 152.184 48.2299 151.054 47.7126C149.923 47.1857 149.028 46.4241 148.367 45.4278C147.715 44.4314 147.39 43.21 147.39 41.7634C147.39 40.518 147.629 39.4929 148.108 38.6882C148.587 37.8835 149.234 37.2464 150.048 36.777C150.862 36.3076 151.772 35.9531 152.778 35.7136C153.784 35.4741 154.809 35.2921 155.853 35.1675C157.176 35.0143 158.249 34.8897 159.072 34.7939C159.896 34.6885 160.495 34.5209 160.869 34.291C161.242 34.0611 161.429 33.6874 161.429 33.1701V33.0695C161.429 31.8145 161.075 30.8422 160.366 30.1524C159.666 29.4626 158.622 29.1178 157.233 29.1178C155.786 29.1178 154.646 29.4387 153.813 30.0805C152.989 30.7128 152.419 31.417 152.103 32.1929L148.065 31.2733C148.544 29.9321 149.243 28.8495 150.163 28.0256C151.092 27.1922 152.16 26.5886 153.367 26.215C154.575 25.8318 155.844 25.6402 157.176 25.6402C158.057 25.6402 158.991 25.7456 159.978 25.9563C160.974 26.1575 161.903 26.5311 162.765 27.0772C163.637 27.6233 164.351 28.404 164.907 29.4195C165.462 30.4254 165.74 31.7331 165.74 33.3426V48H161.544V44.9823H161.372C161.094 45.5379 160.677 46.084 160.121 46.6205C159.566 47.157 158.852 47.6024 157.98 47.9569C157.108 48.3114 156.064 48.4886 154.848 48.4886ZM155.782 45.0398C156.97 45.0398 157.985 44.8051 158.828 44.3356C159.681 43.8662 160.327 43.2531 160.768 42.4963C161.218 41.7299 161.443 40.9108 161.443 40.039V37.1937C161.29 37.347 160.993 37.4907 160.552 37.6248C160.121 37.7494 159.628 37.8595 159.072 37.9553C158.517 38.0416 157.975 38.123 157.449 38.1996C156.922 38.2667 156.481 38.3242 156.127 38.3721C155.293 38.4774 154.531 38.6547 153.842 38.9038C153.162 39.1528 152.615 39.5121 152.203 39.9815C151.801 40.4414 151.6 41.0545 151.6 41.8209C151.6 42.8843 151.993 43.689 152.778 44.235C153.564 44.7715 154.565 45.0398 155.782 45.0398ZM170.62 48V25.9276H174.773V29.4339H175.003C175.405 28.246 176.114 27.3119 177.13 26.6317C178.155 25.942 179.314 25.5971 180.607 25.5971C180.875 25.5971 181.191 25.6067 181.556 25.6258C181.929 25.645 182.221 25.6689 182.432 25.6977V29.8075C182.26 29.7596 181.953 29.7069 181.512 29.6494C181.072 29.5824 180.631 29.5489 180.19 29.5489C179.175 29.5489 178.27 29.7644 177.474 30.1955C176.689 30.617 176.066 31.2062 175.606 31.963C175.146 32.7103 174.917 33.5629 174.917 34.5209V48H170.62ZM188.695 56.2771C188.053 56.2771 187.469 56.2245 186.942 56.1191C186.415 56.0233 186.022 55.9179 185.764 55.8029L186.798 52.2823C187.584 52.493 188.283 52.584 188.896 52.5553C189.509 52.5266 190.051 52.2966 190.52 51.8655C190.999 51.4344 191.421 50.7303 191.785 49.7531L192.316 48.2874L184.24 25.9276H188.839L194.429 43.0567H194.659L200.249 25.9276H204.861L195.765 50.9459C195.344 52.0955 194.807 53.0678 194.156 53.863C193.504 54.6677 192.728 55.2712 191.828 55.6736C190.927 56.076 189.883 56.2771 188.695 56.2771Z" fill="#191F33"/>
    <defs>
        <clipPath id="clip0_32_17685">
            <rect width="67.4434" height="67.4434" fill="white"/>
        </clipPath>
    </defs>
</svg>
