<svg width="16" height="16" viewBox="0 0 16 16" fill="none" xmlns="http://www.w3.org/2000/svg">
    <path d="M14.2166 6.20525C13.7113 6.20525 13.2666 6.41792 12.9393 6.74925C11.736 5.90392 10.1133 5.35992 8.31531 5.30192L9.24931 1.03125L12.2233 1.70859C12.2233 2.44725 12.8166 3.05059 13.5446 3.05059C14.2866 3.05059 14.8833 2.43125 14.8833 1.69192C14.8833 0.952585 14.2906 0.333252 13.5453 0.333252C13.026 0.333252 12.578 0.651252 12.3546 1.08592L9.06997 0.347252C8.90464 0.302585 8.74264 0.422585 8.69864 0.590585L7.67331 5.29859C5.88931 5.37392 4.28397 5.91725 3.07664 6.76325C2.74931 6.41792 2.28731 6.20525 1.78198 6.20525C-0.0926917 6.20525 -0.706692 8.75792 1.00997 9.63059C0.949308 9.90059 0.921975 10.1886 0.921975 10.4759C0.921975 13.3433 4.10531 15.6666 8.01398 15.6666C11.9393 15.6666 15.1226 13.3433 15.1226 10.4759C15.1226 10.1886 15.0926 9.88725 15.0186 9.61659C16.7006 8.74059 16.0813 6.20659 14.2166 6.20525ZM3.73397 9.81192C3.73397 9.05925 4.32731 8.45325 5.07264 8.45325C5.80064 8.45325 6.39464 9.05525 6.39464 9.81192C6.39464 10.5513 5.80131 11.1539 5.07264 11.1539C4.33064 11.1573 3.73397 10.5513 3.73397 9.81192ZM10.96 13.0106C9.73264 14.2559 6.26931 14.2559 5.04131 13.0106C4.90597 12.8906 4.90597 12.6786 5.04131 12.5419C5.15931 12.4219 5.36864 12.4219 5.48664 12.5419C6.42397 13.5173 9.53331 13.5339 10.5113 12.5419C10.6293 12.4219 10.8386 12.4219 10.9566 12.5419C11.0946 12.6793 11.0946 12.8913 10.96 13.0106ZM10.9326 11.1566C10.2046 11.1566 9.61131 10.5546 9.61131 9.81592C9.61131 9.06325 10.2046 8.45725 10.9326 8.45725C11.6746 8.45725 12.2713 9.05925 12.2713 9.81592C12.268 10.5513 11.6746 11.1566 10.9326 11.1566Z" fill="white"/>
</svg>
