<svg width="16" height="16" viewBox="0 0 16 16" fill="none" xmlns="http://www.w3.org/2000/svg">
    <path d="M6.00001 10.9995H1.875C1.77554 10.9995 1.68016 10.96 1.60983 10.8897C1.53951 10.8194 1.5 10.724 1.5 10.6245V6.4995C1.5 5.30603 1.97411 4.16144 2.81802 3.31753C3.66193 2.47362 4.80652 1.99951 5.99999 1.99951H6C7.19347 1.99951 8.33807 2.47362 9.18198 3.31753C10.0259 4.16144 10.5 5.30604 10.5 6.49951V6.49952C10.5 7.69299 10.0259 8.83758 9.18198 9.68149C8.33807 10.5254 7.19348 10.9995 6.00001 10.9995V10.9995Z" stroke="#636A80" stroke-linecap="round" stroke-linejoin="round"/>
    <path d="M5.75613 10.9997C6.06666 11.8771 6.64148 12.6366 7.40148 13.1738C8.16148 13.711 9.0693 13.9995 10 13.9995H14.125C14.2245 13.9995 14.3198 13.96 14.3902 13.8897C14.4605 13.8193 14.5 13.724 14.5 13.6245V9.49949C14.5 8.34858 14.059 7.24141 13.2678 6.40564C12.4765 5.56988 11.3951 5.06903 10.2459 5.0061" stroke="#636A80" stroke-linecap="round" stroke-linejoin="round"/>
</svg>
