<svg width="17" height="16" viewBox="0 0 17 16" fill="none" xmlns="http://www.w3.org/2000/svg">
    <g clip-path="url(#clip0_32_8371)">
        <path d="M5.50378 14.4022C11.5081 14.4022 14.7917 9.45633 14.7917 5.16746C14.7917 5.027 14.7888 4.88718 14.7824 4.74795C15.4214 4.28829 15.9728 3.71917 16.4108 3.06725C15.8259 3.3258 15.1965 3.49982 14.5362 3.57828C15.2101 3.17647 15.7275 2.5408 15.9716 1.7831C15.3308 2.16105 14.6298 2.42748 13.8988 2.57092C13.3031 1.94004 12.455 1.54547 11.516 1.54547C9.71328 1.54547 8.25143 2.99899 8.25143 4.79066C8.25143 5.04539 8.28011 5.29307 8.33612 5.53073C5.62304 5.39499 3.21728 4.10347 1.60722 2.13964C1.31723 2.63496 1.16471 3.1979 1.16521 3.77097C1.16521 4.89702 1.74149 5.89107 2.61788 6.47264C2.09949 6.4569 1.59247 6.31768 1.13947 6.06669C1.13899 6.08032 1.13899 6.09359 1.13899 6.10815C1.13899 7.67998 2.26419 8.99236 3.75786 9.28974C3.47733 9.3657 3.18785 9.4041 2.89709 9.40393C2.68712 9.40393 2.48248 9.3834 2.28359 9.34544C2.69918 10.635 3.90426 11.5735 5.33303 11.5997C4.21575 12.4704 2.80832 12.989 1.27866 12.989C1.01844 12.9892 0.758439 12.9742 0.5 12.944C1.94471 13.8647 3.66017 14.4019 5.50394 14.4019" fill="white"/>
    </g>
    <defs>
        <clipPath id="clip0_32_8371">
            <rect width="16" height="16" fill="white" transform="translate(0.5)"/>
        </clipPath>
    </defs>
</svg>
