<svg width="17" height="16" viewBox="0 0 17 16" fill="none" xmlns="http://www.w3.org/2000/svg">
    <path fill-rule="evenodd" clip-rule="evenodd" d="M13.8057 2.67206C12.4024 1.26709 10.5361 0.493011 8.54782 0.492188C4.45084 0.492188 1.11649 3.82645 1.11484 7.92453C1.11429 9.23456 1.45651 10.5134 2.10699 11.6406L1.05249 15.4922L4.99283 14.4586C6.07855 15.0508 7.30087 15.3629 8.5448 15.3633H8.54791C12.6444 15.3633 15.9792 12.0287 15.9807 7.93048C15.9815 5.94433 15.2091 4.07693 13.8057 2.67206ZM8.54782 14.108H8.54526C7.43674 14.1075 6.34955 13.8096 5.40088 13.2469L5.17538 13.1129L2.83713 13.7263L3.46124 11.4466L3.3143 11.2128C2.69586 10.2292 2.36929 9.09228 2.36984 7.92499C2.37112 4.51877 5.14261 1.74756 8.55029 1.74756C10.2004 1.74811 11.7516 2.39154 12.918 3.5593C14.0844 4.72705 14.7263 6.27923 14.7258 7.93002C14.7243 11.3365 11.953 14.108 8.54782 14.108ZM11.9366 9.48102C11.7509 9.388 10.8377 8.93884 10.6674 8.87677C10.4973 8.81479 10.3734 8.78393 10.2497 8.96979C10.1258 9.15564 9.76996 9.57403 9.66156 9.6979C9.55316 9.82187 9.44495 9.83743 9.25918 9.74441C9.07342 9.65149 8.47504 9.45529 7.76559 8.82257C7.21353 8.33011 6.84082 7.72192 6.73242 7.53607C6.62421 7.35004 6.73151 7.25922 6.8139 7.15704C7.01495 6.90738 7.21628 6.64563 7.27817 6.52176C7.34015 6.3978 7.30911 6.28931 7.2626 6.19638C7.21628 6.10345 6.84485 5.1893 6.69012 4.81732C6.53925 4.45532 6.38626 4.50421 6.27219 4.49853C6.16397 4.49313 6.0401 4.49203 5.91623 4.49203C5.79245 4.49203 5.59122 4.53845 5.42093 4.72449C5.25073 4.91043 4.771 5.35968 4.771 6.27383C4.771 7.18799 5.43649 8.0711 5.52933 8.19507C5.62216 8.31903 6.83899 10.1949 8.702 10.9993C9.14511 11.1909 9.491 11.305 9.7608 11.3906C10.2057 11.532 10.6105 11.512 10.9306 11.4642C11.2874 11.4109 12.0293 11.0149 12.1842 10.5811C12.3389 10.1472 12.3389 9.77545 12.2924 9.6979C12.2461 9.62045 12.1222 9.57403 11.9366 9.48102Z" fill="white"/>
</svg>
